<svg width="630" height="607" viewBox="0 0 630 607" fill="none" xmlns="http://www.w3.org/2000/svg">
<g clip-path="url(#clip0_215_4310)">
<path d="M175.742 1.5H25.6917V151.5H175.742V1.5Z" fill="#80F142" stroke="black" stroke-width="3" stroke-miterlimit="10"/>
<path d="M155.717 21.5H45.717V131.5H155.717V21.5Z" fill="#2994FF" stroke="black" stroke-width="3" stroke-miterlimit="10"/>
<path d="M175.742 131.5H155.742V151.5H175.742V131.5Z" fill="#2994FF" stroke="black" stroke-width="3" stroke-miterlimit="10"/>
<path d="M175.742 1.5H155.742V21.5H175.742V1.5Z" fill="#2994FF" stroke="black" stroke-width="3" stroke-miterlimit="10"/>
<path d="M45.6917 1.5H25.6917V21.5H45.6917V1.5Z" fill="#2994FF" stroke="black" stroke-width="3" stroke-miterlimit="10"/>
<path d="M45.6917 131.5H25.6917V151.5H45.6917V131.5Z" fill="#2994FF" stroke="black" stroke-width="3" stroke-miterlimit="10"/>
<path d="M605.692 1.5H455.641V151.5H605.692V1.5Z" fill="#80F142" stroke="black" stroke-width="3" stroke-miterlimit="10"/>
<path d="M585.666 21.5H475.666V131.5H585.666V21.5Z" fill="#2994FF" stroke="black" stroke-width="3" stroke-miterlimit="10"/>
<path d="M605.692 384.952H25.6917V604.952H605.692V384.952Z" fill="#80F142" stroke="black" stroke-width="3" stroke-miterlimit="10"/>
<path d="M585.692 404.952H45.6917V584.882H585.692V404.952Z" fill="#2994FF" stroke="black" stroke-width="2.83465"/>
<path d="M562.201 529.554H70.2846V539.33H562.201V529.554Z" fill="#FFC5DD" stroke="black" stroke-width="2" stroke-linecap="round" stroke-linejoin="round"/>
<path d="M315.692 420.524C424.662 420.524 512.999 332.186 512.999 223.216C512.999 114.247 424.662 25.9089 315.692 25.9089C206.722 25.9089 118.384 114.247 118.384 223.216C118.384 332.186 206.722 420.524 315.692 420.524Z" fill="#80F142" stroke="black" stroke-width="3" stroke-miterlimit="10"/>
<path d="M315.692 398.954C412.749 398.954 491.429 320.274 491.429 223.216C491.429 126.159 412.749 47.4791 315.692 47.4791C218.635 47.4791 139.954 126.159 139.954 223.216C139.954 320.274 218.635 398.954 315.692 398.954Z" stroke="white" stroke-width="22" stroke-miterlimit="10"/>
<path d="M315.692 379.917C402.235 379.917 472.392 309.76 472.392 223.216C472.392 136.673 402.235 66.5164 315.692 66.5164C229.149 66.5164 158.992 136.673 158.992 223.216C158.992 309.76 229.149 379.917 315.692 379.917Z" fill="white" stroke="black" stroke-width="3" stroke-miterlimit="10"/>
<path d="M142.817 203.013C143.231 199.973 143.508 196.912 144.119 193.902L150.643 195.008C150.051 197.902 149.791 200.849 149.39 203.773L142.817 203.013Z" fill="black"/>
<path d="M129.67 201.494C130.112 198.221 130.421 194.93 131.072 191.688L137.595 192.795C136.964 195.921 136.671 199.097 136.244 202.254L129.67 201.494Z" fill="black"/>
<path d="M135.393 211.77L135.755 207.005L135.943 204.624L136.244 202.254L142.817 203.013L142.526 205.297L142.346 207.592L141.997 212.183L135.393 211.77Z" fill="black"/>
<path d="M137.595 192.795C138.159 189.659 138.665 186.512 139.446 183.42L145.902 184.872C145.146 187.849 144.663 190.881 144.119 193.902L137.595 192.795Z" fill="black"/>
<path d="M159.291 146.745L161.389 142.648C162.081 141.279 162.777 139.911 163.569 138.595L169.348 141.817C168.585 143.082 167.917 144.398 167.252 145.716L165.233 149.656L159.291 146.745Z" fill="black"/>
<path d="M152.069 163.673C153.174 160.811 154.295 157.953 155.448 155.11L161.537 157.701C160.43 160.436 159.352 163.185 158.287 165.936L152.069 163.673Z" fill="black"/>
<path d="M149.36 152.519C150.693 149.626 151.933 146.688 153.348 143.834L159.291 146.745C157.927 149.494 156.736 152.325 155.448 155.11L149.36 152.519Z" fill="black"/>
<path d="M147.406 140.923L149.663 136.513C150.41 135.04 151.162 133.569 152.009 132.151L157.789 135.373C156.969 136.74 156.246 138.159 155.526 139.581L153.348 143.834L147.406 140.923Z" fill="black"/>
<path d="M139.633 159.146C140.818 156.064 142.026 152.987 143.271 149.928L149.36 152.519C148.161 155.47 146.996 158.437 145.851 161.41L139.633 159.146Z" fill="black"/>
<path d="M127.512 223.226L127.678 216.516C127.715 215.398 127.718 214.279 127.785 213.162L128.037 209.814C128.224 207.584 128.335 205.346 128.592 203.122L129.438 196.458C130.782 187.608 132.51 178.788 135.132 170.213C135.445 169.137 135.732 168.054 136.067 166.985L137.141 163.801C137.881 161.687 138.528 159.538 139.35 157.454L141.815 151.201C142.208 150.152 142.676 149.134 143.139 148.114L144.522 145.052L145.908 141.991C146.385 140.978 146.918 139.992 147.421 138.991C148.451 137.002 149.44 134.991 150.51 133.024C152.742 129.141 154.917 125.222 157.408 121.497" stroke="black" stroke-width="2.74428" stroke-miterlimit="10"/>
<path d="M149.544 223.225L149.696 217.289C149.729 216.3 149.726 215.309 149.787 214.322L150.014 211.363C150.183 209.393 150.271 207.414 150.5 205.45L151.249 199.565C152.446 191.756 153.951 183.97 156.275 176.41C156.55 175.461 156.8 174.504 157.095 173.562L158.047 170.755C158.704 168.891 159.263 166.992 159.992 165.155L162.167 159.64C162.509 158.712 162.926 157.815 163.336 156.916L164.558 154.215L165.777 151.512C166.197 150.618 166.671 149.75 167.115 148.867C168.028 147.113 168.895 145.335 169.838 143.599C171.818 140.176 173.725 136.71 175.932 133.425" stroke="black" stroke-width="2.74428" stroke-miterlimit="10"/>
<path d="M181.157 112.749C183.151 110.417 185.151 108.086 187.192 105.795L192.076 110.26C190.113 112.466 188.189 114.708 186.268 116.95L181.157 112.749Z" fill="black"/>
<path d="M170.934 104.344C173.076 101.833 175.228 99.3276 177.425 96.8652L182.309 101.33C180.189 103.707 178.114 106.125 176.045 108.546L170.934 104.344Z" fill="black"/>
<path d="M170.187 116.095C172.062 113.521 174.096 111.065 176.045 108.546L181.157 112.749C179.282 115.178 177.319 117.542 175.513 120.022L170.187 116.095Z" fill="black"/>
<path d="M182.309 101.33L185.605 97.8713C186.714 96.7292 187.773 95.5366 188.95 94.4617L193.592 99.177C192.457 100.211 191.439 101.363 190.369 102.463L187.192 105.795L182.309 101.33Z" fill="black"/>
<path d="M225.467 74.3145C228.137 72.802 230.769 71.2185 233.469 69.7612L236.599 75.5908C234.002 76.9929 231.472 78.5186 228.902 79.9702L225.467 74.3145Z" fill="black"/>
<path d="M210.278 84.7102C211.465 83.7356 212.737 82.8748 213.984 81.981L217.735 79.3123L221.464 84.7788L217.855 87.3474C216.655 88.207 215.43 89.0332 214.289 89.9727L210.278 84.7102Z" fill="black"/>
<path d="M214.007 73.8457C216.647 72.0642 219.357 70.386 222.033 68.6584L225.467 74.3145C222.891 75.9812 220.279 77.5962 217.735 79.3123L214.007 73.8457Z" fill="black"/>
<path d="M218.598 63.0027C221.468 61.3691 224.302 59.6697 227.208 58.1018L230.338 63.9314C227.536 65.4441 224.803 67.0857 222.033 68.6584L218.598 63.0027Z" fill="black"/>
<path d="M202.255 74.1853C203.534 73.1401 204.9 72.2102 206.242 71.2483L210.279 68.3792L214.007 73.8457L210.113 76.6147C208.818 77.5425 207.5 78.4377 206.267 79.4478L202.255 74.1853Z" fill="black"/>
<path d="M157.408 121.497C176.769 91.3462 204.887 66.9292 237.509 52.0547" stroke="black" stroke-width="2.74428" stroke-miterlimit="10"/>
<path d="M175.932 133.425C193.025 106.798 217.894 85.2083 246.675 72.0898" stroke="black" stroke-width="2.74428" stroke-miterlimit="10"/>
<path d="M262.235 57.5347C263.679 57.0122 265.161 56.6101 266.637 56.1934L271.065 54.9353L272.757 61.3323L268.499 62.543C267.079 62.9431 265.654 63.3279 264.266 63.8325L262.235 57.5347Z" fill="black"/>
<path d="M258.175 44.9392C259.73 44.3804 261.324 43.9438 262.914 43.4939L267.681 42.1414L269.373 48.5383L264.775 49.8435C263.243 50.2771 261.705 50.6963 260.205 51.2368L258.175 44.9392Z" fill="black"/>
<path d="M251.194 54.4182L253.417 53.5425L255.678 52.7688L260.205 51.2368L262.235 57.5347L257.875 59.0103L255.698 59.7539L253.557 60.5989L251.194 54.4182Z" fill="black"/>
<path d="M269.373 48.5383C272.448 47.7063 275.574 47.0713 278.672 46.3306L280.021 52.8086C277.038 53.5254 274.026 54.1333 271.065 54.9353L269.373 48.5383Z" fill="black"/>
<path d="M320.286 49.2539C321.82 49.2983 323.356 49.3184 324.889 49.3818L329.48 49.7314L328.963 56.3281L324.545 55.9897L320.114 55.8687L320.286 49.2539Z" fill="black"/>
<path d="M301.886 49.7329L306.477 49.3826C308.01 49.3191 309.545 49.2991 311.08 49.2544L311.252 55.8691L306.821 55.9907L302.404 56.3296L301.886 49.7329Z" fill="black"/>
<path d="M310.907 42.6396L315.683 42.5198L320.458 42.6392L320.286 49.2539L315.683 49.137L311.08 49.2544L310.907 42.6396Z" fill="black"/>
<path d="M320.63 36.0247C322.279 36.0718 323.929 36.0964 325.577 36.1658L330.515 36.5381L329.997 43.1348L325.233 42.7737C323.643 42.7075 322.05 42.6851 320.458 42.6392L320.63 36.0247Z" fill="black"/>
<path d="M300.85 36.5396L305.787 36.1667C307.436 36.0972 309.085 36.0725 310.734 36.0251L310.907 42.6396C309.315 42.6858 307.723 42.7083 306.132 42.7747L301.368 43.1362L300.85 36.5396Z" fill="black"/>
<path d="M237.509 52.0547C270.102 37.1064 307.007 31.792 342.451 36.9621" stroke="black" stroke-width="2.74428" stroke-miterlimit="10"/>
<path d="M246.675 72.0898C275.403 58.9123 307.999 54.1965 339.343 58.7739" stroke="black" stroke-width="2.74428" stroke-miterlimit="10"/>
<path d="M360.301 54.9307L364.729 56.1882C366.206 56.605 367.687 57.0068 369.131 57.5293L367.101 63.8271C365.713 63.3228 364.288 62.9382 362.868 62.5381L358.61 61.3279L360.301 54.9307Z" fill="black"/>
<path d="M363.684 42.1362L368.451 43.4885C370.041 43.9382 371.634 44.3748 373.19 44.9331L371.161 51.2312C369.661 50.6907 368.123 50.2717 366.59 49.8384L361.992 48.5334L363.684 42.1362Z" fill="black"/>
<path d="M352.693 46.3267C355.792 47.0671 358.917 47.7019 361.992 48.5334L360.301 54.9307C357.34 54.1292 354.329 53.5212 351.345 52.8049L352.693 46.3267Z" fill="black"/>
<path d="M371.161 51.2312L375.688 52.7627L377.949 53.5359L380.172 54.4116L377.81 60.5925L375.669 59.7478L373.491 59.0044L369.131 57.5293L371.161 51.2312Z" fill="black"/>
<path d="M413.633 79.3022L417.385 81.9705C418.632 82.8643 419.904 83.7249 421.091 84.6995L417.081 89.9624C415.94 89.0229 414.714 88.197 413.514 87.3374L409.905 84.7693L413.633 79.3022Z" fill="black"/>
<path d="M397.899 69.7527C400.599 71.21 403.23 72.793 405.901 74.3052L402.467 79.9612C399.896 78.5098 397.366 76.9846 394.77 75.5828L397.899 69.7527Z" fill="black"/>
<path d="M409.335 68.6489C412.011 70.376 414.721 72.054 417.361 73.8354L413.633 79.3022C411.089 77.5864 408.478 75.9717 405.901 74.3052L409.335 68.6489Z" fill="black"/>
<path d="M421.089 68.3684L425.126 71.2371C426.468 72.199 427.833 73.1287 429.113 74.1736L425.102 79.4365C423.869 78.4268 422.55 77.5315 421.255 76.6038L417.361 73.8354L421.089 68.3684Z" fill="black"/>
<path d="M404.158 58.0928C407.064 59.6604 409.899 61.3594 412.769 62.9927L409.335 68.6489C406.564 67.0762 403.832 65.4351 401.029 63.9226L404.158 58.0928Z" fill="black"/>
<path d="M342.451 36.9622C351.3 38.3071 360.12 40.0352 368.695 42.657C369.771 42.9695 370.854 43.2571 371.923 43.5916L375.107 44.666C377.222 45.4055 379.37 46.053 381.454 46.8748L387.707 49.3396C388.757 49.7322 389.774 50.2007 390.794 50.6633L393.856 52.0466L396.917 53.4331C397.931 53.9099 398.917 54.4426 399.917 54.9453C401.906 55.9756 403.917 56.9646 405.884 58.0344C409.768 60.2664 413.686 62.4416 417.411 64.9324C421.231 67.2764 424.811 69.9761 428.463 72.5635C431.978 75.3381 435.559 78.032 438.887 81.0312" stroke="black" stroke-width="2.74428" stroke-miterlimit="10"/>
<path d="M339.343 58.7739C347.152 59.9709 354.938 61.4753 362.498 63.7996C363.447 64.075 364.404 64.3242 365.347 64.6194L368.153 65.572C370.017 66.2283 371.916 66.7876 373.753 67.5171L379.269 69.6916C380.196 70.0337 381.093 70.4507 381.992 70.8608L384.693 72.0828L387.396 73.3018C388.291 73.7214 389.159 74.1963 390.042 74.6401C391.795 75.5525 393.573 76.4192 395.309 77.363C398.732 79.3428 402.199 81.2493 405.484 83.4568C408.863 85.5168 412.013 87.9182 415.248 90.1919C418.344 92.6533 421.519 95.019 424.453 97.6768" stroke="black" stroke-width="2.74428" stroke-miterlimit="10"/>
<path d="M444.179 105.782C446.221 108.073 448.22 110.403 450.215 112.735L445.104 116.937C443.183 114.695 441.259 112.453 439.296 110.247L444.179 105.782Z" fill="black"/>
<path d="M453.945 96.851C456.143 99.3132 458.295 101.819 460.438 104.33L455.327 108.532C453.258 106.111 451.182 103.693 449.062 101.317L453.945 96.851Z" fill="black"/>
<path d="M442.42 94.4487C443.597 95.5234 444.656 96.716 445.766 97.8581L449.062 101.317L444.179 105.782L441.002 102.45C439.932 101.35 438.914 100.199 437.778 99.1645L442.42 94.4487Z" fill="black"/>
<path d="M455.327 108.532C457.275 111.051 459.31 113.506 461.186 116.08L455.86 120.008C454.053 117.528 452.091 115.164 450.215 112.735L455.327 108.532Z" fill="black"/>
<path d="M475.928 155.094C477.082 157.936 478.203 160.794 479.308 163.656L473.091 165.92C472.026 163.168 470.947 160.42 469.84 157.685L475.928 155.094Z" fill="black"/>
<path d="M467.806 138.579C468.598 139.895 469.294 141.263 469.986 142.632L472.085 146.729L466.143 149.641L464.124 145.701C463.458 144.383 462.79 143.067 462.027 141.802L467.806 138.579Z" fill="black"/>
<path d="M478.027 143.818C479.443 146.671 480.683 149.609 482.017 152.502L475.928 155.094C474.64 152.309 473.449 149.477 472.085 146.729L478.027 143.818Z" fill="black"/>
<path d="M488.104 149.91C489.35 152.969 490.558 156.046 491.744 159.128L485.526 161.392C484.381 158.42 483.216 155.453 482.017 152.502L488.104 149.91Z" fill="black"/>
<path d="M479.365 132.134C480.213 133.552 480.965 135.022 481.711 136.496L483.969 140.906L478.027 143.818L475.849 139.564C475.129 138.143 474.405 136.724 473.585 135.357L479.365 132.134Z" fill="black"/>
<path d="M438.887 81.0312C442.332 83.8959 445.495 87.071 448.749 90.1462C451.824 93.3991 454.999 96.5617 457.864 100.007C460.864 103.334 463.558 106.915 466.333 110.429C468.921 114.082 471.621 117.661 473.965 121.481C476.457 125.206 478.632 129.124 480.864 133.007C481.935 134.974 482.924 136.985 483.954 138.974C484.457 139.974 484.99 140.96 485.467 141.973L486.854 145.034L488.237 148.096C488.7 149.116 489.168 150.134 489.561 151.184L492.027 157.436C492.849 159.52 493.496 161.668 494.236 163.783L495.311 166.967C495.646 168.036 495.933 169.119 496.246 170.195" stroke="black" stroke-width="2.74428" stroke-miterlimit="10"/>
<path d="M424.453 97.6767C427.504 100.2 430.285 103.019 433.17 105.726C435.877 108.611 438.697 111.392 441.22 114.442C443.878 117.376 446.244 120.55 448.706 123.647C450.98 126.881 453.382 130.031 455.442 133.41C457.65 136.695 459.557 140.161 461.537 143.584C462.481 145.32 463.348 147.098 464.26 148.852C464.704 149.734 465.179 150.602 465.599 151.497L466.818 154.199L468.041 156.9C468.451 157.8 468.868 158.696 469.21 159.624L471.385 165.139C472.115 166.976 472.674 168.875 473.331 170.738L474.284 173.545C474.579 174.488 474.828 175.445 475.104 176.394" stroke="black" stroke-width="2.74428" stroke-miterlimit="10"/>
<path d="M487.261 193.884C487.873 196.894 488.15 199.956 488.564 202.996L481.991 203.756C481.59 200.832 481.33 197.885 480.738 194.991L487.261 193.884Z" fill="black"/>
<path d="M500.309 191.669C500.959 194.911 501.269 198.202 501.71 201.475L495.138 202.235C494.709 199.079 494.416 195.902 493.785 192.777L500.309 191.669Z" fill="black"/>
<path d="M491.934 183.402C492.715 186.494 493.221 189.641 493.785 192.777L487.261 193.884C486.717 190.864 486.233 187.831 485.478 184.855L491.934 183.402Z" fill="black"/>
<path d="M495.138 202.235L495.438 204.605L495.626 206.987L495.989 211.751L489.385 212.165L489.036 207.574L488.855 205.279L488.564 202.996L495.138 202.235Z" fill="black"/>
<path d="M487.264 252.531C486.72 255.552 486.237 258.584 485.481 261.561L479.026 260.109C479.755 257.247 480.216 254.329 480.741 251.425L487.264 252.531Z" fill="black"/>
<path d="M489.386 234.25L489.038 238.841L488.857 241.136L488.566 243.419L481.993 242.659L482.274 240.463L482.446 238.255L482.782 233.837L489.386 234.25Z" fill="black"/>
<path d="M495.14 244.179C494.712 247.336 494.419 250.512 493.788 253.638L487.264 252.531C487.875 249.521 488.152 246.46 488.566 243.419L495.14 244.179Z" fill="black"/>
<path d="M500.312 254.745C499.729 257.996 499.2 261.258 498.393 264.464L491.938 263.012C492.719 259.921 493.224 256.774 493.788 253.638L500.312 254.745Z" fill="black"/>
<path d="M502.594 235.077L502.219 240.014L502.022 242.482L501.713 244.939L495.14 244.179L495.44 241.809L495.628 239.428L495.99 234.663L502.594 235.077Z" fill="black"/>
<path d="M496.246 170.195C498.868 178.769 500.598 187.589 501.943 196.438L502.79 203.103C503.047 205.327 503.158 207.564 503.346 209.795L503.598 213.143C503.665 214.26 503.667 215.379 503.705 216.497L503.872 223.207L503.706 229.917C503.668 231.035 503.666 232.154 503.599 233.271L503.347 236.619C503.16 238.849 503.049 241.087 502.792 243.311L501.946 249.975C500.601 258.824 498.873 267.645 496.251 276.22" stroke="black" stroke-width="2.74428" stroke-miterlimit="10"/>
<path d="M475.104 176.394C477.429 183.954 478.934 191.739 480.132 199.549L480.881 205.433C481.111 207.397 481.199 209.376 481.368 211.346L481.596 214.305C481.657 215.292 481.654 216.283 481.687 217.272L481.84 223.208L481.687 229.144C481.654 230.133 481.657 231.124 481.597 232.111L481.37 235.07C481.2 237.04 481.112 239.019 480.883 240.983L480.134 246.867C478.938 254.677 477.433 262.463 475.108 270.023" stroke="black" stroke-width="2.74428" stroke-miterlimit="10"/>
<path d="M475.935 291.323C474.647 294.108 473.457 296.939 472.093 299.688L466.15 296.777C467.463 294.133 468.604 291.409 469.847 288.731L475.935 291.323Z" fill="black"/>
<path d="M488.112 296.505C486.732 299.505 485.444 302.551 483.978 305.51L478.035 302.598C479.451 299.745 480.69 296.806 482.023 293.914L488.112 296.505Z" fill="black"/>
<path d="M485.532 285.023C484.387 287.996 483.223 290.963 482.023 293.914L475.935 291.323C477.088 288.48 478.209 285.622 479.314 282.76L485.532 285.023Z" fill="black"/>
<path d="M478.035 302.598L475.857 306.852C475.138 308.274 474.414 309.693 473.594 311.06L467.815 307.838C468.606 306.522 469.302 305.155 469.994 303.785L472.093 299.688L478.035 302.598Z" fill="black"/>
<path d="M444.191 340.638L441.014 343.97C439.945 345.07 438.926 346.222 437.791 347.256L433.149 342.541C434.243 341.547 435.221 340.437 436.25 339.378L439.308 336.173L444.191 340.638Z" fill="black"/>
<path d="M455.871 326.411C454.064 328.891 452.102 331.255 450.227 333.685L445.115 329.482C446.917 327.143 448.808 324.87 450.545 322.484L455.871 326.411Z" fill="black"/>
<path d="M455.338 337.886C453.27 340.308 451.194 342.726 449.075 345.103L444.191 340.638C446.232 338.346 448.232 336.016 450.227 333.685L455.338 337.886Z" fill="black"/>
<path d="M453.958 349.568L450.543 353.153C449.393 354.337 448.293 355.571 447.075 356.687L442.433 351.971C443.61 350.896 444.669 349.704 445.778 348.562L449.075 345.103L453.958 349.568Z" fill="black"/>
<path d="M466.522 334.265C464.578 336.932 462.472 339.48 460.45 342.089L455.338 337.886C457.287 335.367 459.321 332.912 461.196 330.338L466.522 334.265Z" fill="black"/>
<path d="M496.251 276.22C495.938 277.295 495.651 278.379 495.316 279.448L494.242 282.632C493.502 284.746 492.855 286.895 492.034 288.979L489.569 295.231C489.176 296.281 488.708 297.299 488.245 298.319L486.861 301.381L485.475 304.442C484.998 305.455 484.465 306.441 483.963 307.442C482.933 309.43 481.943 311.442 480.874 313.409C478.642 317.292 476.467 321.21 473.976 324.936C471.632 328.756 468.932 332.335 466.345 335.988C463.57 339.502 460.876 343.083 457.877 346.412C455.012 349.857 451.837 353.02 448.762 356.273C445.509 359.349 442.346 362.524 438.901 365.389" stroke="black" stroke-width="2.74428" stroke-miterlimit="10"/>
<path d="M475.108 270.023C474.833 270.972 474.584 271.928 474.289 272.871L473.336 275.678C472.68 277.542 472.121 279.441 471.391 281.278L469.216 286.793C468.875 287.721 468.458 288.618 468.047 289.517L466.825 292.218L465.606 294.921C465.187 295.815 464.712 296.683 464.268 297.566C463.356 299.32 462.489 301.097 461.545 302.834C459.565 306.257 457.659 309.723 455.451 313.008C453.391 316.387 450.99 319.538 448.716 322.773C446.255 325.869 443.889 329.043 441.231 331.978C438.708 335.029 435.889 337.81 433.182 340.695C430.298 343.402 427.517 346.222 424.466 348.745" stroke="black" stroke-width="2.74428" stroke-miterlimit="10"/>
<path d="M413.648 367.121C411.104 368.837 408.493 370.452 405.916 372.119L402.481 366.463C404.958 364.856 407.472 363.304 409.919 361.654L413.648 367.121Z" fill="black"/>
<path d="M421.104 378.054C418.369 379.901 415.561 381.642 412.785 383.43L409.351 377.774C412.027 376.047 414.737 374.369 417.376 372.587L421.104 378.054Z" fill="black"/>
<path d="M425.117 366.985C423.884 367.995 422.565 368.89 421.271 369.818L417.376 372.587L413.648 367.121L417.399 364.452C418.646 363.558 419.919 362.697 421.105 361.723L425.117 366.985Z" fill="black"/>
<path d="M409.351 377.774C406.581 379.347 403.848 380.989 401.045 382.501L397.915 376.672C400.615 375.214 403.246 373.631 405.916 372.119L409.351 377.774Z" fill="black"/>
<path d="M360.318 391.498C357.357 392.3 354.346 392.908 351.363 393.624L350.014 387.146C352.882 386.454 355.779 385.873 358.626 385.101L360.318 391.498Z" fill="black"/>
<path d="M377.827 385.834L375.686 386.679L373.508 387.423L369.148 388.898L367.118 382.601L371.311 381.181L373.405 380.467L375.463 379.653L377.827 385.834Z" fill="black"/>
<path d="M371.178 395.196C369.678 395.737 368.141 396.156 366.608 396.589L362.01 397.895L360.318 391.498L364.746 390.24C366.223 389.823 367.704 389.421 369.148 388.898L371.178 395.196Z" fill="black"/>
<path d="M363.702 404.292C360.514 405.154 357.274 405.816 354.061 406.58L352.711 400.102C355.81 399.362 358.936 398.727 362.01 397.895L363.702 404.292Z" fill="black"/>
<path d="M382.552 398.195L380.247 399.102L377.903 399.905L373.208 401.494L371.178 395.196L375.706 393.664L377.966 392.891L380.189 392.015L382.552 398.195Z" fill="black"/>
<path d="M438.901 365.389C435.574 368.389 431.993 371.083 428.479 373.858C424.826 376.446 421.247 379.146 417.427 381.49C413.702 383.981 409.784 386.157 405.901 388.389C403.934 389.459 401.923 390.448 399.935 391.479C398.934 391.982 397.948 392.515 396.935 392.991L393.874 394.378L390.812 395.762C389.792 396.225 388.774 396.693 387.725 397.086L381.472 399.551C379.388 400.374 377.24 401.021 375.125 401.761L371.941 402.835C370.873 403.17 369.789 403.458 368.713 403.77C360.139 406.393 351.319 408.122 342.47 409.468" stroke="black" stroke-width="2.74428" stroke-miterlimit="10"/>
<path d="M424.466 348.745C421.532 351.403 418.357 353.769 415.262 356.231C412.027 358.505 408.876 360.906 405.498 362.967C402.213 365.175 398.747 367.082 395.324 369.062C393.588 370.006 391.81 370.873 390.057 371.785C389.174 372.229 388.306 372.704 387.411 373.124L384.709 374.343L382.008 375.565C381.108 375.976 380.212 376.393 379.284 376.735L373.769 378.91C371.932 379.64 370.033 380.199 368.17 380.856L365.363 381.809C364.42 382.103 363.463 382.353 362.514 382.628C354.955 384.953 347.169 386.459 339.36 387.656" stroke="black" stroke-width="2.74428" stroke-miterlimit="10"/>
<path d="M320.304 397.178L315.701 397.296L311.097 397.179L311.269 390.564L315.7 390.679L320.131 390.564L320.304 397.178Z" fill="black"/>
<path d="M320.649 410.408L315.701 410.53L310.753 410.408L310.925 403.794L315.701 403.913L320.477 403.793L320.649 410.408Z" fill="black"/>
<path d="M330.016 403.297L325.251 403.658C323.661 403.725 322.068 403.747 320.477 403.793L320.304 397.178C321.838 397.134 323.374 397.114 324.907 397.05L329.498 396.7L330.016 403.297Z" fill="black"/>
<path d="M310.925 403.794C309.334 403.748 307.741 403.726 306.15 403.659L301.386 403.298L301.903 396.701L306.494 397.051C308.027 397.114 309.563 397.134 311.097 397.179L310.925 403.794Z" fill="black"/>
<path d="M262.252 388.904L257.893 387.428L255.714 386.685L253.574 385.84L255.936 379.659L257.994 380.473L260.089 381.187L264.282 382.606L262.252 388.904Z" fill="black"/>
<path d="M280.039 393.628C277.055 392.912 274.044 392.304 271.083 391.502L272.773 385.105C275.622 385.877 278.518 386.457 281.387 387.15L280.039 393.628Z" fill="black"/>
<path d="M269.391 397.899L264.793 396.594C263.26 396.161 261.723 395.742 260.223 395.202L262.252 388.904C263.696 389.426 265.178 389.828 266.654 390.245L271.083 391.502L269.391 397.899Z" fill="black"/>
<path d="M258.193 401.5L253.499 399.912L251.155 399.109L248.849 398.202L251.211 392.021L253.435 392.897L255.695 393.67L260.223 395.202L258.193 401.5Z" fill="black"/>
<path d="M277.342 406.584C274.128 405.82 270.888 405.158 267.7 404.297L269.391 397.899C272.466 398.731 275.592 399.366 278.69 400.106L277.342 406.584Z" fill="black"/>
<path d="M342.47 409.468C307.027 414.642 270.121 409.331 237.527 394.386" stroke="black" stroke-width="2.74428" stroke-miterlimit="10"/>
<path d="M339.36 387.656C308.016 392.237 275.419 387.525 246.69 374.35" stroke="black" stroke-width="2.74428" stroke-miterlimit="10"/>
<path d="M225.482 372.128C222.906 370.461 220.294 368.846 217.75 367.131L221.478 361.664C223.926 363.314 226.439 364.865 228.917 366.472L225.482 372.128Z" fill="black"/>
<path d="M218.615 383.44C215.839 381.653 213.031 379.911 210.294 378.064L214.022 372.598C216.662 374.379 219.373 376.057 222.049 377.784L218.615 383.44Z" fill="black"/>
<path d="M230.354 382.51C227.552 380.998 224.819 379.357 222.049 377.784L225.482 372.128C228.153 373.64 230.784 375.223 233.484 376.68L230.354 382.51Z" fill="black"/>
<path d="M214.022 372.598L210.128 369.829C208.833 368.901 207.514 368.006 206.281 366.996L210.292 361.733C211.479 362.708 212.751 363.569 213.999 364.462L217.75 367.131L214.022 372.598Z" fill="black"/>
<path d="M181.168 333.698C179.292 331.269 177.33 328.905 175.523 326.425L180.849 322.497C182.586 324.884 184.478 327.156 186.279 329.496L181.168 333.698Z" fill="black"/>
<path d="M193.605 347.268C192.47 346.234 191.451 345.083 190.382 343.983L187.204 340.651L192.087 336.185L195.146 339.39C196.175 340.449 197.152 341.559 198.247 342.552L193.605 347.268Z" fill="black"/>
<path d="M182.321 345.116C180.202 342.74 178.125 340.322 176.057 337.901L181.168 333.698C183.163 336.03 185.163 338.36 187.204 340.651L182.321 345.116Z" fill="black"/>
<path d="M170.946 342.104C168.923 339.495 166.818 336.948 164.873 334.28L170.198 330.353C172.074 332.927 174.108 335.382 176.057 337.901L170.946 342.104Z" fill="black"/>
<path d="M184.322 356.7C183.104 355.585 182.004 354.351 180.854 353.167L177.438 349.582L182.321 345.116L185.618 348.575C186.728 349.717 187.787 350.909 188.963 351.984L184.322 356.7Z" fill="black"/>
<path d="M237.527 394.386C204.903 379.515 176.782 355.101 157.418 324.952" stroke="black" stroke-width="2.74428" stroke-miterlimit="10"/>
<path d="M246.69 374.35C217.908 361.235 193.038 339.648 175.941 313.023" stroke="black" stroke-width="2.74428" stroke-miterlimit="10"/>
<path d="M159.298 299.704C157.934 296.955 156.744 294.124 155.456 291.339L161.543 288.747C162.786 291.424 163.928 294.149 165.24 296.792L159.298 299.704Z" fill="black"/>
<path d="M147.415 305.527C145.947 302.568 144.659 299.523 143.279 296.522L149.367 293.931C150.701 296.823 151.941 299.762 153.356 302.615L147.415 305.527Z" fill="black"/>
<path d="M157.798 311.076C156.979 309.709 156.254 308.29 155.535 306.869L153.356 302.615L159.298 299.704L161.397 303.801C162.09 305.17 162.786 306.538 163.577 307.854L157.798 311.076Z" fill="black"/>
<path d="M149.367 293.931C148.167 290.98 147.003 288.013 145.857 285.041L152.075 282.777C153.18 285.639 154.302 288.496 155.456 291.339L149.367 293.931Z" fill="black"/>
<path d="M142.819 243.437L142.528 241.154L142.348 238.859L141.998 234.268L148.602 233.854L148.938 238.272L149.11 240.48L149.392 242.677L142.819 243.437Z" fill="black"/>
<path d="M145.906 261.578C145.15 258.602 144.667 255.569 144.122 252.549L150.646 251.442C151.17 254.346 151.631 257.264 152.361 260.126L145.906 261.578Z" fill="black"/>
<path d="M137.599 253.656C136.967 250.531 136.674 247.354 136.246 244.198L142.819 243.437C143.233 246.478 143.511 249.539 144.122 252.549L137.599 253.656Z" fill="black"/>
<path d="M129.673 244.958L129.363 242.501L129.166 240.033L128.79 235.096L135.394 234.682L135.757 239.446L135.945 241.827L136.246 244.198L129.673 244.958Z" fill="black"/>
<path d="M132.995 264.483C132.187 261.277 131.659 258.015 131.075 254.764L137.599 253.656C138.163 256.792 138.668 259.939 139.45 263.031L132.995 264.483Z" fill="black"/>
<path d="M157.418 324.952C154.927 321.227 152.751 317.309 150.519 313.426C149.449 311.459 148.459 309.448 147.429 307.459C146.926 306.459 146.394 305.473 145.917 304.459L144.53 301.399L143.146 298.337C142.684 297.317 142.215 296.299 141.822 295.249L139.356 288.997C138.535 286.913 137.887 284.764 137.147 282.65L136.073 279.466C135.738 278.397 135.45 277.314 135.138 276.238C132.515 267.664 130.786 258.844 129.44 249.994L128.594 243.33C128.336 241.106 128.226 238.869 128.038 236.638L127.786 233.29C127.719 232.173 127.716 231.054 127.679 229.936L127.512 223.226" stroke="black" stroke-width="2.74428" stroke-miterlimit="10"/>
<path d="M175.941 313.023C173.733 309.738 171.827 306.271 169.846 302.849C168.902 301.113 168.036 299.335 167.123 297.581C166.679 296.698 166.204 295.831 165.784 294.936L164.565 292.233L163.343 289.532C162.933 288.633 162.516 287.737 162.173 286.809L159.998 281.294C159.269 279.457 158.709 277.558 158.053 275.694L157.1 272.887C156.805 271.945 156.555 270.988 156.28 270.039C153.955 262.479 152.449 254.694 151.251 246.885L150.502 241C150.273 239.036 150.185 237.057 150.015 235.087L149.787 232.128C149.727 231.141 149.73 230.15 149.697 229.161L149.544 223.225" stroke="black" stroke-width="2.74428" stroke-miterlimit="10"/>
<path d="M405.718 146.129C375.709 146.129 345.7 146.129 315.692 146.129C332.859 165.263 350.025 184.397 367.192 203.531L405.718 146.129Z" fill="#FF5450" stroke="black" stroke-width="3.37612" stroke-linecap="round" stroke-linejoin="round"/>
<path d="M225.665 146.129C214.289 165.261 202.914 184.393 191.538 203.525L264.191 203.531C251.349 184.397 238.507 165.263 225.665 146.129Z" fill="#FF5450" stroke="black" stroke-width="3.37612" stroke-linecap="round" stroke-linejoin="round"/>
<path d="M264.191 203.531C281.358 184.397 298.525 165.263 315.692 146.129L225.665 146.129C238.507 165.263 251.349 184.397 264.191 203.531Z" fill="#FF5450" stroke="black" stroke-width="3.37612" stroke-linecap="round" stroke-linejoin="round"/>
<path d="M405.718 146.129L367.192 203.531C367.191 203.534 367.19 203.537 367.189 203.54L439.828 203.546C439.834 203.539 439.84 203.532 439.846 203.525C428.47 184.393 417.094 165.261 405.718 146.129Z" fill="#FF5450" stroke="black" stroke-width="3.37612" stroke-linecap="round" stroke-linejoin="round"/>
<path d="M264.191 203.531L191.538 203.525C232.922 251.676 274.307 299.828 315.692 347.979C298.525 299.83 281.358 251.681 264.191 203.531Z" fill="#FF5450" stroke="black" stroke-width="3.37612" stroke-linecap="round" stroke-linejoin="round"/>
<path d="M315.692 347.979C357.07 299.835 398.449 251.69 439.828 203.546L367.189 203.54C350.023 251.686 332.857 299.833 315.692 347.979Z" fill="#FF5450" stroke="black" stroke-width="3.37612" stroke-linecap="round" stroke-linejoin="round"/>
<path d="M264.191 203.531C281.358 251.681 298.525 299.83 315.692 347.979C332.858 299.833 350.023 251.686 367.189 203.54L264.191 203.531Z" fill="#FF5450" stroke="black" stroke-width="2.39253" stroke-linecap="round" stroke-linejoin="round"/>
<path d="M367.189 203.54C367.19 203.537 367.191 203.534 367.192 203.531C350.025 184.397 332.859 165.263 315.692 146.129C298.525 165.263 281.358 184.397 264.191 203.531L367.189 203.54Z" fill="#FF5450" stroke="black" stroke-width="3.37612" stroke-linecap="round" stroke-linejoin="round"/>
<path d="M554.333 539.33H78.1517V584.52H554.333V539.33Z" fill="#FF5450" stroke="black" stroke-width="2" stroke-miterlimit="10"/>
<path d="M78.0452 561.925H554.44" stroke="black" stroke-width="2" stroke-miterlimit="10"/>
<path d="M96.47 539.33V584.52" stroke="black" stroke-width="2" stroke-miterlimit="10"/>
<path d="M119.548 539.33V584.52" stroke="black" stroke-width="2" stroke-miterlimit="10"/>
<path d="M142.625 539.33V584.52" stroke="black" stroke-width="2" stroke-miterlimit="10"/>
<path d="M165.703 539.33V584.52" stroke="black" stroke-width="2" stroke-miterlimit="10"/>
<path d="M188.781 539.33V584.52" stroke="black" stroke-width="2" stroke-miterlimit="10"/>
<path d="M443.704 539.33V584.52" stroke="black" stroke-width="2" stroke-miterlimit="10"/>
<path d="M466.782 539.33V584.52" stroke="black" stroke-width="2" stroke-miterlimit="10"/>
<path d="M489.86 539.33V584.52" stroke="black" stroke-width="2" stroke-miterlimit="10"/>
<path d="M512.937 539.33V584.52" stroke="black" stroke-width="2" stroke-miterlimit="10"/>
<path d="M536.015 539.33V584.52" stroke="black" stroke-width="2" stroke-miterlimit="10"/>
<path d="M423.283 519.779H209.202V584.52H423.283V519.779Z" fill="#FF5450" stroke="black" stroke-width="2" stroke-miterlimit="10"/>
<path d="M403.014 519.779H229.471V584.52H403.014V519.779Z" fill="#FF5450" stroke="black" stroke-width="2" stroke-miterlimit="10"/>
<path d="M386.013 519.779H249.74V584.52H386.013V519.779Z" fill="#FF5450" stroke="black" stroke-width="2" stroke-miterlimit="10"/>
<path d="M369.986 519.779H265.767V584.52H369.986V519.779Z" fill="#FF5450" stroke="black" stroke-width="2" stroke-miterlimit="10"/>
<path d="M423.283 524.973H209.202V534.136H423.283V524.973Z" stroke="black" stroke-width="2" stroke-miterlimit="10"/>
<path d="M410.182 488.18H224.361V500.539H410.182V488.18Z" fill="#FF5450" stroke="black" stroke-width="2" stroke-miterlimit="10"/>
<path d="M354.409 519.779H281.344V584.52H354.409V519.779Z" fill="#FF5450" stroke="black" stroke-width="2" stroke-miterlimit="10"/>
<path d="M354.409 534.136H281.344V539.33H354.409V534.136Z" fill="white" stroke="black" stroke-width="2" stroke-miterlimit="10"/>
<path d="M354.409 524.36H281.344V534.136H354.409V524.36Z" fill="#95E5AD" stroke="black" stroke-width="2" stroke-miterlimit="10"/>
<path d="M249.74 434.094H241.757V443.87H249.74V434.094Z" fill="#95E5AD" stroke="black" stroke-width="2" stroke-miterlimit="10"/>
<path d="M392.955 434.094H384.972V443.87H392.955V434.094Z" fill="#95E5AD" stroke="black" stroke-width="2" stroke-miterlimit="10"/>
<path d="M229.471 546.341H221.425V569.754H229.471V546.341Z" fill="white" stroke="black" stroke-width="2" stroke-miterlimit="10"/>
<path d="M411.06 546.341H403.014V569.754H411.06V546.341Z" fill="white" stroke="black" stroke-width="2" stroke-miterlimit="10"/>
<path d="M280.78 546.341H272.734V569.754H280.78V546.341Z" fill="white" stroke="black" stroke-width="2" stroke-miterlimit="10"/>
<path d="M362.455 546.341H354.409V569.754H362.455V546.341Z" fill="white" stroke="black" stroke-width="2" stroke-miterlimit="10"/>
<path d="M378.032 546.341H369.986V569.754H378.032V546.341Z" fill="white" stroke="black" stroke-width="2" stroke-miterlimit="10"/>
<path d="M265.767 546.341H257.721V569.754H265.767V546.341Z" fill="white" stroke="black" stroke-width="2" stroke-miterlimit="10"/>
<path d="M338.014 539.33H329.968V576.786H338.014V539.33Z" fill="white" stroke="black" stroke-width="2" stroke-miterlimit="10"/>
<path d="M305.785 539.33H297.739V576.786H305.785V539.33Z" fill="white" stroke="black" stroke-width="2" stroke-miterlimit="10"/>
<path d="M447.563 514.584H184.922V519.779H447.563V514.584Z" fill="white" stroke="black" stroke-width="2" stroke-miterlimit="10"/>
<path d="M437.287 487.611H197.256V492.805H437.287V487.611Z" fill="white" stroke="black" stroke-width="2" stroke-miterlimit="10"/>
<path d="M392.955 441.273H241.757V446.467H392.955V441.273Z" fill="white" stroke="black" stroke-width="2" stroke-miterlimit="10"/>
<path d="M447.563 514.025H184.922L222.325 500.699H410.16L447.563 514.025Z" fill="#FFC5DD" stroke="black" stroke-width="2" stroke-linecap="round" stroke-linejoin="round"/>
<path d="M329.968 519.779H305.785V584.52H329.968V519.779Z" stroke="black" stroke-width="2" stroke-miterlimit="10"/>
<path d="M455.078 561.925H177.488V584.538H455.078V561.925Z" fill="white" stroke="black" stroke-width="2" stroke-miterlimit="10"/>
<path d="M455.078 561.925H177.488V573.231H455.078V561.925Z" fill="white" stroke="black" stroke-width="2" stroke-miterlimit="10"/>
<path d="M363.019 514.584H272.734V524.973H363.019V514.584Z" fill="white" stroke="black" stroke-width="2" stroke-miterlimit="10"/>
<path d="M403.16 473.975H402.305L392.955 446.605H241.701L232.35 473.975H231.495L197.312 487.301H437.344L403.16 473.975Z" fill="#FFC5DD" stroke="black" stroke-width="2" stroke-linecap="round" stroke-linejoin="round"/>
<path d="M321.868 476.077H313.885V485.852H321.868V476.077Z" fill="#95E5AD" stroke="black" stroke-width="2" stroke-miterlimit="10"/>
<path d="M288.696 485.413H347.057C362.848 485.413 375.668 498.234 375.668 514.025L260.084 514.025C260.084 498.234 272.905 485.413 288.696 485.413Z" fill="white" stroke="black" stroke-width="2" stroke-miterlimit="10"/>
<path d="M289.208 491.143H346.545C359.483 491.143 369.986 501.646 369.986 514.584H265.767C265.767 501.646 276.27 491.143 289.208 491.143Z" fill="#FF5450" stroke="black" stroke-width="2" stroke-linecap="round" stroke-linejoin="round"/>
<path d="M290.233 497.085H345.52C355.178 497.085 363.019 504.926 363.019 514.584H272.734C272.734 504.926 280.575 497.085 290.233 497.085Z" fill="white" stroke="black" stroke-width="2" stroke-miterlimit="10"/>
<path d="M337.519 504.808H298.234V514.584H337.519V504.808Z" fill="#95E5AD" stroke="black" stroke-width="2" stroke-miterlimit="10"/>
<path d="M605.692 384.952H585.692V404.952H605.692V384.952Z" fill="#2994FF" stroke="black" stroke-width="3" stroke-miterlimit="10"/>
<path d="M605.692 131.5H585.692V151.5H605.692V131.5Z" fill="#2994FF" stroke="black" stroke-width="3" stroke-miterlimit="10"/>
<path d="M605.692 1.5H585.692V21.5H605.692V1.5Z" fill="#2994FF" stroke="black" stroke-width="3" stroke-miterlimit="10"/>
<path d="M475.641 1.5H455.641V21.5H475.641V1.5Z" fill="#2994FF" stroke="black" stroke-width="3" stroke-miterlimit="10"/>
<path d="M605.692 584.952H585.692V604.952H605.692V584.952Z" fill="#2994FF" stroke="black" stroke-width="3" stroke-miterlimit="10"/>
<path d="M45.6917 384.952H25.6917V404.952H45.6917V384.952Z" fill="#2994FF" stroke="black" stroke-width="3" stroke-miterlimit="10"/>
<path d="M45.6917 584.952H25.6917V604.952H45.6917V584.952Z" fill="#2994FF" stroke="black" stroke-width="3" stroke-miterlimit="10"/>
<path d="M476.754 473.002C522.317 473.002 559.254 436.065 559.254 390.502C559.254 344.938 522.317 308.002 476.754 308.002C431.19 308.002 394.254 344.938 394.254 390.502C394.254 436.065 431.19 473.002 476.754 473.002Z" fill="#B2FFFF" stroke="black" stroke-width="3"/>
<path d="M476.754 457.002C513.481 457.002 543.254 427.229 543.254 390.502C543.254 353.775 513.481 324.002 476.754 324.002C440.027 324.002 410.254 353.775 410.254 390.502C410.254 427.229 440.027 457.002 476.754 457.002Z" fill="#FFEC00"/>
<path d="M476.754 325.502C512.652 325.502 541.754 354.603 541.754 390.502C541.754 426.4 512.652 455.502 476.754 455.502C440.855 455.502 411.754 426.4 411.754 390.502C411.754 354.603 440.855 325.502 476.754 325.502ZM476.754 322.502C439.259 322.502 408.754 353.006 408.754 390.502C408.754 427.997 439.259 458.502 476.754 458.502C514.249 458.502 544.754 427.997 544.754 390.502C544.754 353.006 514.249 322.502 476.754 322.502Z" fill="black"/>
<path d="M500.34 404.789C499.278 402.181 498.149 398.212 499.888 394.967C502.879 389.383 511.577 391.134 514 385.742C515.769 381.804 511.963 379.012 513.234 373.503C514.285 368.946 518.034 365.891 521.076 364.009C519.982 366.613 518.758 370.71 520.118 374.849C522.447 381.936 530.296 382.883 530.449 388.244C530.555 391.982 526.768 392.626 525.158 399.787C524.809 401.338 524.306 403.671 524.677 406.617C525.364 412.066 528.21 412.991 528.093 416.568C527.967 420.434 524.486 424.183 520.526 425.649C516.212 427.246 511.274 426.157 507.843 422.874C505.342 416.845 502.841 410.817 500.34 404.789Z" fill="#FF5450" stroke="black" stroke-width="2" stroke-linecap="round" stroke-linejoin="round"/>
<path d="M443.831 394.526C443.214 396.449 441.156 402.861 443.831 408.901C445.602 412.9 448.368 414.303 450.483 420.487C451.435 423.274 452.201 425.624 451.126 427.783C449.939 430.167 447.858 430.438 446.62 432.932C445.464 435.263 445.975 437.864 446.547 439.633C452.207 439.599 457.867 439.565 463.528 439.53C465.262 436.821 467.06 433.26 468.164 428.876C468.44 427.781 468.651 426.724 468.809 425.713C471.004 426.481 473.306 427.228 475.712 427.937C477.206 428.377 478.673 428.784 480.11 429.159C479.744 429.54 478.157 431.275 478.156 433.924C478.154 437.349 480.805 439.339 481.088 439.544H503.947C505.897 438.264 510.113 435.109 512.609 429.403C515.207 423.465 515.773 415.151 511.754 409.244C509.521 405.961 508.248 406.915 495.505 398.737C487.511 393.607 485.932 391.897 484.875 390.551C480.012 384.357 482.035 380.544 478.767 377.845C471.563 371.898 448.626 379.584 443.831 394.526Z" fill="#FFC5DD" stroke="black" stroke-width="2" stroke-linecap="round" stroke-linejoin="round"/>
<path d="M466.464 419.037C466.973 419.574 467.644 420.412 468.155 421.578C468.975 423.449 468.938 425.148 468.856 426.015" fill="#F5C6DB"/>
<path d="M466.464 419.037C466.973 419.574 467.644 420.412 468.155 421.578C468.975 423.449 468.938 425.148 468.856 426.015" stroke="black" stroke-width="2" stroke-linecap="round" stroke-linejoin="round"/>
<path d="M486.539 426.015C485.8 426.044 484.734 426.175 483.554 426.653C481.661 427.42 480.502 428.662 479.954 429.34" fill="#F5C6DB"/>
<path d="M486.539 426.015C485.8 426.044 484.734 426.175 483.554 426.653C481.661 427.42 480.502 428.662 479.954 429.34" stroke="black" stroke-width="2" stroke-linecap="round" stroke-linejoin="round"/>
<path d="M460.384 401.94C465.623 401.94 469.869 398.607 469.869 394.496C469.869 390.386 465.623 387.053 460.384 387.053C455.145 387.053 450.899 390.386 450.899 394.496C450.899 398.607 455.145 401.94 460.384 401.94Z" fill="#FF5450" stroke="black" stroke-width="2" stroke-linecap="round" stroke-linejoin="round"/>
<path d="M445.562 396.907C449.47 396.907 452.639 394.42 452.639 391.353C452.639 388.286 449.47 385.8 445.562 385.8C441.653 385.8 438.485 388.286 438.485 391.353C438.485 394.42 441.653 396.907 445.562 396.907Z" fill="#FF5450" stroke="black" stroke-width="2" stroke-linecap="round" stroke-linejoin="round"/>
<path d="M438.485 391.353C442.393 391.353 445.562 388.867 445.562 385.8C445.562 382.733 442.393 380.246 438.485 380.246C434.576 380.246 431.408 382.733 431.408 385.8C431.408 388.867 434.576 391.353 438.485 391.353Z" fill="#FF5450" stroke="black" stroke-width="2" stroke-linecap="round" stroke-linejoin="round"/>
<path d="M436.298 381.473C440.206 381.473 443.375 378.987 443.375 375.919C443.375 372.852 440.206 370.366 436.298 370.366C432.389 370.366 429.221 372.852 429.221 375.919C429.221 378.987 432.389 381.473 436.298 381.473Z" fill="#FF5450" stroke="black" stroke-width="2" stroke-linecap="round" stroke-linejoin="round"/>
<path d="M437.59 369.543C441.498 369.543 444.667 367.056 444.667 363.989C444.667 360.922 441.498 358.436 437.59 358.436C433.681 358.436 430.513 360.922 430.513 363.989C430.513 367.056 433.681 369.543 437.59 369.543Z" fill="#FF5450" stroke="black" stroke-width="2" stroke-linecap="round" stroke-linejoin="round"/>
<path d="M475.206 396.907C479.115 396.907 482.283 394.42 482.283 391.353C482.283 388.286 479.115 385.8 475.206 385.8C471.298 385.8 468.13 388.286 468.13 391.353C468.13 394.42 471.298 396.907 475.206 396.907Z" fill="#FF5450" stroke="black" stroke-width="2" stroke-linecap="round" stroke-linejoin="round"/>
<path d="M482.283 391.353C486.192 391.353 489.36 388.867 489.36 385.8C489.36 382.733 486.192 380.246 482.283 380.246C478.375 380.246 475.206 382.733 475.206 385.8C475.206 388.867 478.375 391.353 482.283 391.353Z" fill="#FF5450" stroke="black" stroke-width="2" stroke-linecap="round" stroke-linejoin="round"/>
<path d="M484.471 381.473C488.379 381.473 491.548 378.987 491.548 375.919C491.548 372.852 488.379 370.366 484.471 370.366C480.562 370.366 477.394 372.852 477.394 375.919C477.394 378.987 480.562 381.473 484.471 381.473Z" fill="#FF5450" stroke="black" stroke-width="2" stroke-linecap="round" stroke-linejoin="round"/>
<path d="M483.178 369.543C487.087 369.543 490.255 367.056 490.255 363.989C490.255 360.922 487.087 358.436 483.178 358.436C479.27 358.436 476.101 360.922 476.101 363.989C476.101 367.056 479.27 369.543 483.178 369.543Z" fill="#FF5450" stroke="black" stroke-width="2" stroke-linecap="round" stroke-linejoin="round"/>
<path d="M432.481 346.603C432.144 347.562 434.254 348.483 439.673 353.372C443.415 356.748 443.924 357.676 445.489 357.814C449.067 358.129 453.36 353.895 452.787 351.045C452.243 348.34 447.429 347.437 442.422 346.497C441.615 346.346 433.13 344.754 432.481 346.603Z" fill="#FF5450" stroke="black" stroke-width="2" stroke-linecap="round" stroke-linejoin="round"/>
<path d="M488.287 346.603C488.624 347.562 486.514 348.483 481.096 353.372C477.353 356.748 476.844 357.676 475.279 357.814C471.701 358.129 467.408 353.895 467.981 351.045C468.525 348.34 473.34 347.437 478.346 346.497C479.153 346.346 487.639 344.754 488.287 346.603Z" fill="#FF5450" stroke="black" stroke-width="2" stroke-linecap="round" stroke-linejoin="round"/>
<path d="M483.088 367.854C482.601 366.935 482.382 365.91 482.383 364.869V364.853C482.383 355.643 472.534 348.177 460.384 348.177C448.234 348.177 438.385 355.643 438.385 364.853V364.869C438.387 365.91 438.168 366.935 437.68 367.854C436.549 369.987 435.924 372.316 435.924 374.756C435.924 384.996 446.875 393.298 460.384 393.298C473.893 393.298 484.845 384.996 484.845 374.756C484.845 372.316 484.22 369.987 483.088 367.854Z" fill="#FFC5DD" stroke="black" stroke-width="2" stroke-linecap="round" stroke-linejoin="round"/>
<path d="M474.674 376.681C473.498 375.347 471.677 375.32 471.221 375.311C469.318 375.273 468.332 376.288 466.729 377.09C463.06 378.926 457.958 378.748 454.491 377.182C452.579 376.318 451.609 375.234 449.548 375.311C449.1 375.327 447.288 375.352 446.094 376.681C444.756 378.171 444.583 380.586 444.872 382.018C445.883 387.035 454.443 389.324 460.441 389.329C466.111 389.333 474.613 387.299 475.779 382.196C476.112 380.737 476.03 378.219 474.674 376.681Z" fill="#FF5450" stroke="black" stroke-width="2.14568" stroke-linecap="round" stroke-linejoin="round"/>
<path d="M447.586 373.197C450.427 373.197 452.73 370.894 452.73 368.052C452.73 365.211 450.427 362.908 447.586 362.908C444.744 362.908 442.441 365.211 442.441 368.052C442.441 370.894 444.744 373.197 447.586 373.197Z" fill="white" stroke="black" stroke-width="2" stroke-miterlimit="10"/>
<path d="M473.183 373.197C476.024 373.197 478.327 370.894 478.327 368.052C478.327 365.211 476.024 362.908 473.183 362.908C470.341 362.908 468.038 365.211 468.038 368.052C468.038 370.894 470.341 373.197 473.183 373.197Z" fill="white" stroke="black" stroke-width="2" stroke-miterlimit="10"/>
<path d="M454.861 362.021C455.06 359.892 453.758 358.411 453.577 358.212C452.371 356.885 450.574 356.352 449.096 356.618C447.805 356.85 447.878 357.49 446.42 357.886C444.122 358.511 441.979 357.452 441.541 357.236C439.765 356.359 439.31 355.261 438.939 355.447C438.216 355.808 438.646 360.627 441.729 363.644C444.933 366.78 450.636 367.611 453.238 365.267C453.974 364.604 454.728 363.448 454.861 362.021Z" fill="#FF5450" stroke="black" stroke-width="2" stroke-linecap="round" stroke-linejoin="round"/>
<path d="M465.907 362.021C465.708 359.892 467.01 358.411 467.191 358.212C468.397 356.885 470.194 356.352 471.672 356.618C472.963 356.85 472.89 357.49 474.348 357.886C476.646 358.51 478.789 357.452 479.227 357.236C481.003 356.359 481.458 355.261 481.829 355.447C482.552 355.808 482.123 360.627 479.039 363.644C475.835 366.78 470.132 367.611 467.53 365.267C466.794 364.604 466.04 363.448 465.907 362.021Z" fill="#FF5450" stroke="black" stroke-width="2" stroke-linecap="round" stroke-linejoin="round"/>
<path d="M492.743 428.301C491.489 426.163 492.127 423.968 492.219 423.67C492.833 421.685 494.459 420.242 496.14 419.795C497.61 419.405 497.848 420.112 499.573 419.812C502.292 419.338 504.022 417.173 504.376 416.731C505.809 414.937 505.748 413.561 506.229 413.574C507.165 413.598 509.082 418.868 507.328 423.551C505.505 428.418 499.926 432.093 496.043 430.911C494.944 430.577 493.584 429.733 492.743 428.301Z" fill="#FF5450" stroke="black" stroke-width="2" stroke-linecap="round" stroke-linejoin="round"/>
<path d="M455.579 420.545C454.122 418.064 454.864 415.516 454.971 415.17C455.683 412.866 457.57 411.191 459.522 410.672C461.227 410.219 461.504 411.04 463.506 410.692C466.662 410.141 468.67 407.629 469.081 407.115C470.745 405.033 470.674 403.436 471.232 403.45C472.319 403.478 474.544 409.596 472.508 415.032C470.392 420.682 463.916 424.947 459.408 423.575C458.133 423.187 456.554 422.208 455.579 420.545Z" fill="#FF5450" stroke="black" stroke-width="2" stroke-linecap="round" stroke-linejoin="round"/>
<path d="M459.051 366.809C460.242 366.238 461.509 366.697 461.628 366.743C462.751 367.169 462.92 367.952 464.266 369.461C466.072 371.487 466.882 371.326 467.061 372.189C467.462 374.119 463.982 377.644 460.113 377.642H460.655C456.787 377.644 453.306 374.119 453.707 372.189C453.886 371.326 454.696 371.487 456.503 369.461C457.848 367.952 458.017 367.169 459.14 366.743C459.259 366.697 460.527 366.238 461.717 366.809" fill="#FF5450"/>
<path d="M459.051 366.809C460.242 366.238 461.509 366.697 461.628 366.743C462.751 367.169 462.92 367.952 464.266 369.461C466.072 371.487 466.882 371.326 467.061 372.189C467.462 374.119 463.982 377.644 460.113 377.642H460.655C456.787 377.644 453.306 374.119 453.707 372.189C453.886 371.326 454.696 371.487 456.503 369.461C457.848 367.952 458.017 367.169 459.14 366.743C459.259 366.697 460.527 366.238 461.717 366.809" stroke="black" stroke-width="2" stroke-linecap="round" stroke-linejoin="round"/>
<path d="M449.943 380.963C451.24 381.875 455.127 384.357 460.649 384.27C465.692 384.192 469.254 382.017 470.597 381.098" stroke="black" stroke-width="5" stroke-linecap="round" stroke-linejoin="round"/>
<path d="M447.586 370.111C448.722 370.111 449.644 369.189 449.644 368.052C449.644 366.916 448.722 365.994 447.586 365.994C446.449 365.994 445.527 366.916 445.527 368.052C445.527 369.189 446.449 370.111 447.586 370.111Z" fill="black"/>
<path d="M473.183 370.111C474.319 370.111 475.241 369.189 475.241 368.052C475.241 366.916 474.319 365.994 473.183 365.994C472.046 365.994 471.124 366.916 471.124 368.052C471.124 369.189 472.046 370.111 473.183 370.111Z" fill="black"/>
<path d="M451.556 379.038C451.736 380.249 451.916 381.46 452.097 382.671C452.211 383.438 453.168 383.723 453.683 383.143C454.319 382.427 454.956 381.711 455.592 380.995C454.883 380.773 454.069 380.461 453.202 380.017C452.578 379.697 452.03 379.362 451.556 379.038Z" fill="white"/>
<path d="M469.111 379.038C468.931 380.249 468.75 381.46 468.57 382.671C468.456 383.438 467.499 383.723 466.984 383.143C466.347 382.427 465.711 381.711 465.075 380.995C465.784 380.773 466.598 380.461 467.465 380.017C468.089 379.697 468.637 379.362 469.111 379.038Z" fill="white"/>
<path d="M154.27 473.002C199.834 473.002 236.77 436.065 236.77 390.502C236.77 344.938 199.834 308.002 154.27 308.002C108.707 308.002 71.7703 344.938 71.7703 390.502C71.7703 436.065 108.707 473.002 154.27 473.002Z" fill="#B2FFFF" stroke="black" stroke-width="3"/>
<path d="M154.271 457.002C190.997 457.002 220.771 427.229 220.771 390.502C220.771 353.775 190.997 324.002 154.271 324.002C117.544 324.002 87.7705 353.775 87.7705 390.502C87.7705 427.229 117.544 457.002 154.271 457.002Z" fill="#FFEC00"/>
<path d="M154.271 325.502C190.169 325.502 219.271 354.603 219.271 390.502C219.271 426.4 190.169 455.502 154.271 455.502C118.372 455.502 89.2705 426.4 89.2705 390.502C89.2705 354.603 118.372 325.502 154.271 325.502ZM154.271 322.502C116.775 322.502 86.2705 353.006 86.2705 390.502C86.2705 427.997 116.775 458.502 154.271 458.502C191.766 458.502 222.271 427.997 222.271 390.502C222.271 353.006 191.766 322.502 154.271 322.502Z" fill="black"/>
<path d="M130.803 404.789C131.865 402.181 132.993 398.212 131.255 394.967C128.264 389.383 119.566 391.134 117.143 385.742C115.373 381.804 119.18 379.012 117.909 373.503C116.858 368.946 113.109 365.891 110.066 364.009C111.16 366.613 112.385 370.71 111.025 374.849C108.695 381.936 100.846 382.883 100.694 388.244C100.588 391.982 104.374 392.626 105.985 399.787C106.333 401.338 106.837 403.671 106.466 406.617C105.779 412.066 102.933 412.991 103.049 416.568C103.176 420.434 106.656 424.183 110.617 425.649C114.93 427.246 119.869 426.157 123.3 422.874C125.801 416.845 128.302 410.817 130.803 404.789Z" fill="#FF5450" stroke="black" stroke-width="2" stroke-linecap="round" stroke-linejoin="round"/>
<path d="M187.312 394.526C187.929 396.449 189.986 402.861 187.312 408.901C185.541 412.9 182.775 414.303 180.66 420.487C179.708 423.274 178.941 425.624 180.017 427.783C181.204 430.167 183.285 430.438 184.522 432.932C185.679 435.263 185.168 437.864 184.596 439.633C178.935 439.599 173.275 439.565 167.615 439.53C165.881 436.821 164.083 433.26 162.978 428.876C162.702 427.781 162.492 426.724 162.334 425.713C160.139 426.481 157.837 427.228 155.431 427.937C153.937 428.377 152.47 428.784 151.033 429.159C151.399 429.54 152.986 431.275 152.987 433.924C152.988 437.349 150.338 439.339 150.055 439.544C142.435 439.544 134.816 439.544 127.196 439.544C125.246 438.264 121.029 435.109 118.533 429.403C115.936 423.465 115.37 415.151 119.389 409.244C121.622 405.961 122.895 406.915 135.638 398.737C143.632 393.607 145.211 391.897 146.268 390.551C151.131 384.357 149.107 380.544 152.376 377.845C159.579 371.898 182.517 379.584 187.312 394.526Z" fill="#FFC5DD" stroke="black" stroke-width="2" stroke-linecap="round" stroke-linejoin="round"/>
<path d="M164.679 419.037C164.17 419.574 163.499 420.412 162.988 421.578C162.168 423.449 162.205 425.148 162.287 426.015" fill="#FFC5DD"/>
<path d="M164.679 419.037C164.17 419.574 163.499 420.412 162.988 421.578C162.168 423.449 162.205 425.148 162.287 426.015" stroke="black" stroke-width="2" stroke-linecap="round" stroke-linejoin="round"/>
<path d="M144.603 426.015C145.343 426.044 146.408 426.175 147.588 426.653C149.482 427.42 150.641 428.662 151.188 429.34" fill="#FFC5DD"/>
<path d="M144.603 426.015C145.343 426.044 146.408 426.175 147.588 426.653C149.482 427.42 150.641 428.662 151.188 429.34" stroke="black" stroke-width="2" stroke-linecap="round" stroke-linejoin="round"/>
<path d="M170.759 401.94C175.997 401.94 180.244 398.607 180.244 394.496C180.244 390.386 175.997 387.053 170.759 387.053C165.52 387.053 161.273 390.386 161.273 394.496C161.273 398.607 165.52 401.94 170.759 401.94Z" fill="#FF5450" stroke="black" stroke-width="2" stroke-linecap="round" stroke-linejoin="round"/>
<path d="M185.581 396.907C189.49 396.907 192.658 394.42 192.658 391.353C192.658 388.286 189.49 385.8 185.581 385.8C181.673 385.8 178.504 388.286 178.504 391.353C178.504 394.42 181.673 396.907 185.581 396.907Z" fill="#FF5450" stroke="black" stroke-width="2" stroke-linecap="round" stroke-linejoin="round"/>
<path d="M192.658 391.353C196.567 391.353 199.735 388.867 199.735 385.8C199.735 382.733 196.567 380.246 192.658 380.246C188.75 380.246 185.581 382.733 185.581 385.8C185.581 388.867 188.75 391.353 192.658 391.353Z" fill="#FF5450" stroke="black" stroke-width="2" stroke-linecap="round" stroke-linejoin="round"/>
<path d="M194.845 381.473C198.754 381.473 201.922 378.987 201.922 375.919C201.922 372.852 198.754 370.366 194.845 370.366C190.937 370.366 187.768 372.852 187.768 375.919C187.768 378.987 190.937 381.473 194.845 381.473Z" fill="#FF5450" stroke="black" stroke-width="2" stroke-linecap="round" stroke-linejoin="round"/>
<path d="M193.553 369.543C197.461 369.543 200.63 367.056 200.63 363.989C200.63 360.922 197.461 358.436 193.553 358.436C189.644 358.436 186.476 360.922 186.476 363.989C186.476 367.056 189.644 369.543 193.553 369.543Z" fill="#FF5450" stroke="black" stroke-width="2" stroke-linecap="round" stroke-linejoin="round"/>
<path d="M155.936 396.907C159.845 396.907 163.013 394.42 163.013 391.353C163.013 388.286 159.845 385.8 155.936 385.8C152.028 385.8 148.859 388.286 148.859 391.353C148.859 394.42 152.028 396.907 155.936 396.907Z" fill="#FF5450" stroke="black" stroke-width="2" stroke-linecap="round" stroke-linejoin="round"/>
<path d="M148.859 391.353C152.768 391.353 155.936 388.867 155.936 385.8C155.936 382.733 152.768 380.246 148.859 380.246C144.951 380.246 141.782 382.733 141.782 385.8C141.782 388.867 144.951 391.353 148.859 391.353Z" fill="#FF5450" stroke="black" stroke-width="2" stroke-linecap="round" stroke-linejoin="round"/>
<path d="M146.672 381.473C150.581 381.473 153.749 378.987 153.749 375.919C153.749 372.852 150.581 370.366 146.672 370.366C142.764 370.366 139.595 372.852 139.595 375.919C139.595 378.987 142.764 381.473 146.672 381.473Z" fill="#FF5450" stroke="black" stroke-width="2" stroke-linecap="round" stroke-linejoin="round"/>
<path d="M147.965 369.543C151.873 369.543 155.042 367.056 155.042 363.989C155.042 360.922 151.873 358.436 147.965 358.436C144.056 358.436 140.888 360.922 140.888 363.989C140.888 367.056 144.056 369.543 147.965 369.543Z" fill="#FF5450" stroke="black" stroke-width="2" stroke-linecap="round" stroke-linejoin="round"/>
<g style="mix-blend-mode:multiply">
<path d="M198.662 346.603C198.998 347.562 196.889 348.483 191.47 353.372C187.727 356.748 187.218 357.676 185.653 357.814C182.076 358.129 177.783 353.895 178.356 351.045C178.899 348.34 183.714 347.437 188.72 346.497C189.528 346.346 198.013 344.754 198.662 346.603Z" fill="#FF5450"/>
<path d="M198.662 346.603C198.998 347.562 196.889 348.483 191.47 353.372C187.727 356.748 187.218 357.676 185.653 357.814C182.076 358.129 177.783 353.895 178.356 351.045C178.899 348.34 183.714 347.437 188.72 346.497C189.528 346.346 198.013 344.754 198.662 346.603Z" stroke="black" stroke-width="2" stroke-linecap="round" stroke-linejoin="round"/>
</g>
<g style="mix-blend-mode:multiply">
<path d="M142.855 346.603C142.519 347.562 144.629 348.483 150.047 353.372C153.79 356.748 154.299 357.676 155.864 357.814C159.441 358.129 163.734 353.895 163.162 351.045C162.618 348.34 157.803 347.437 152.797 346.497C151.99 346.346 143.504 344.754 142.855 346.603Z" fill="#FF5450"/>
<path d="M142.855 346.603C142.519 347.562 144.629 348.483 150.047 353.372C153.79 356.748 154.299 357.676 155.864 357.814C159.441 358.129 163.734 353.895 163.162 351.045C162.618 348.34 157.803 347.437 152.797 346.497C151.99 346.346 143.504 344.754 142.855 346.603Z" stroke="black" stroke-width="2" stroke-linecap="round" stroke-linejoin="round"/>
</g>
<path d="M148.055 367.854C148.542 366.935 148.761 365.91 148.76 364.869V364.853C148.76 355.643 158.609 348.177 170.759 348.177C182.908 348.177 192.758 355.643 192.758 364.853V364.869C192.756 365.91 192.975 366.934 193.463 367.854C194.594 369.987 195.219 372.316 195.219 374.756C195.219 384.996 184.268 393.298 170.759 393.298C157.25 393.298 146.298 384.996 146.298 374.756C146.298 372.316 146.923 369.987 148.055 367.854Z" fill="#FFC5DD" stroke="black" stroke-width="2" stroke-linecap="round" stroke-linejoin="round"/>
<path d="M156.469 377.88C157.464 376.561 159.533 376.669 159.922 376.69C161.818 376.789 162.662 377.827 164.447 378.714C165.739 379.356 167.765 380.038 170.759 379.905C173.752 380.038 175.778 379.356 177.07 378.714C178.855 377.827 179.699 376.789 181.595 376.69C181.985 376.669 184.053 376.561 185.049 377.88C186.158 379.35 185.217 381.64 185.049 382.048C182.944 387.167 171.967 387.068 170.997 387.05C170.027 387.068 158.573 387.167 156.469 382.048C156.301 381.64 155.36 379.35 156.469 377.88Z" fill="#FF5450" stroke="black" stroke-width="2" stroke-linecap="round" stroke-linejoin="round"/>
<path d="M183.557 373.197C186.399 373.197 188.702 370.894 188.702 368.052C188.702 365.211 186.399 362.908 183.557 362.908C180.716 362.908 178.412 365.211 178.412 368.052C178.412 370.894 180.716 373.197 183.557 373.197Z" fill="white" stroke="black" stroke-width="2" stroke-miterlimit="10"/>
<path d="M157.96 373.197C160.801 373.197 163.105 370.894 163.105 368.052C163.105 365.211 160.801 362.908 157.96 362.908C155.119 362.908 152.815 365.211 152.815 368.052C152.815 370.894 155.119 373.197 157.96 373.197Z" fill="white" stroke="black" stroke-width="2" stroke-miterlimit="10"/>
<path d="M176.282 362.021C176.083 359.892 177.385 358.411 177.566 358.212C178.771 356.885 180.569 356.352 182.047 356.618C183.337 356.85 183.265 357.49 184.722 357.886C187.02 358.51 189.164 357.452 189.602 357.236C191.378 356.359 191.833 355.261 192.204 355.447C192.927 355.808 192.497 360.627 189.414 363.644C186.209 366.78 180.507 367.611 177.905 365.267C177.169 364.604 176.415 363.448 176.282 362.021Z" fill="#FF5450" stroke="black" stroke-width="2" stroke-linecap="round" stroke-linejoin="round"/>
<path d="M165.236 362.021C165.434 359.892 164.132 358.411 163.952 358.212C162.746 356.885 160.948 356.352 159.471 356.618C158.18 356.85 158.253 357.49 156.795 357.886C154.497 358.51 152.354 357.452 151.916 357.236C150.14 356.359 149.684 355.261 149.313 355.447C148.591 355.808 149.02 360.627 152.103 363.644C155.308 366.78 161.011 367.611 163.613 365.267C164.349 364.604 165.103 363.448 165.236 362.021Z" fill="#FF5450" stroke="black" stroke-width="2" stroke-linecap="round" stroke-linejoin="round"/>
<path d="M138.399 428.301C139.654 426.163 139.015 423.968 138.923 423.67C138.31 421.685 136.684 420.242 135.002 419.795C133.533 419.405 133.295 420.112 131.57 419.812C128.851 419.338 127.121 417.173 126.767 416.731C125.334 414.937 125.395 413.561 124.914 413.574C123.978 413.598 122.061 418.868 123.815 423.551C125.638 428.418 131.217 432.093 135.1 430.911C136.199 430.577 137.559 429.733 138.399 428.301Z" fill="#FF5450" stroke="black" stroke-width="2" stroke-linecap="round" stroke-linejoin="round"/>
<path d="M175.564 420.545C177.021 418.064 176.279 415.516 176.172 415.17C175.46 412.866 173.573 411.191 171.621 410.672C169.916 410.219 169.639 411.04 167.637 410.692C164.48 410.141 162.472 407.629 162.062 407.115C160.398 405.033 160.469 403.436 159.911 403.45C158.824 403.478 156.599 409.596 158.635 415.032C160.751 420.682 167.227 424.947 171.734 423.575C173.01 423.187 174.588 422.208 175.564 420.545Z" fill="#FF5450" stroke="black" stroke-width="2" stroke-linecap="round" stroke-linejoin="round"/>
<path d="M172.091 368.809C170.901 368.238 169.634 368.698 169.514 368.743C168.392 369.169 168.222 369.952 166.877 371.461C165.07 373.487 164.261 373.326 164.081 374.189C163.68 376.119 167.161 379.644 171.03 379.642H170.488C174.356 379.644 177.837 376.119 177.436 374.189C177.256 373.326 176.447 373.487 174.64 371.461C173.295 369.952 173.126 369.169 172.003 368.743C171.883 368.698 170.616 368.238 169.426 368.809" fill="#FF5450"/>
<path d="M172.091 368.809C170.901 368.238 169.634 368.698 169.514 368.743C168.392 369.169 168.222 369.952 166.877 371.461C165.07 373.487 164.261 373.326 164.081 374.189C163.68 376.119 167.161 379.644 171.03 379.642H170.488C174.356 379.644 177.837 376.119 177.436 374.189C177.256 373.326 176.447 373.487 174.64 371.461C173.295 369.952 173.126 369.169 172.003 368.743C171.883 368.698 170.616 368.238 169.426 368.809" stroke="black" stroke-width="2" stroke-linecap="round" stroke-linejoin="round"/>
<path d="M182.005 380.246C180.411 381.349 177.739 382.867 174.146 383.477C166.863 384.714 161.185 381.307 159.628 380.298" stroke="black" stroke-width="2" stroke-linecap="round" stroke-linejoin="round"/>
<path d="M183.557 370.111C184.694 370.111 185.616 369.189 185.616 368.052C185.616 366.916 184.694 365.994 183.557 365.994C182.42 365.994 181.499 366.916 181.499 368.052C181.499 369.189 182.42 370.111 183.557 370.111Z" fill="black"/>
<path d="M157.96 370.111C159.097 370.111 160.019 369.189 160.019 368.052C160.019 366.916 159.097 365.994 157.96 365.994C156.823 365.994 155.902 366.916 155.902 368.052C155.902 369.189 156.823 370.111 157.96 370.111Z" fill="black"/>
<path d="M54 268.716C53.3662 268.716 52.0938 267.006 51.333 265.984C50.0391 264.246 48.7002 262.449 46.874 262.163C46.6992 262.135 46.5186 262.121 46.3359 262.121C44.6445 262.121 42.9688 263.31 41.3477 264.461C40.2441 265.244 38.8711 266.219 38.1699 266.219C37.4961 266.018 36.8203 264.011 36.416 262.813C35.7207 260.749 35.001 258.615 33.3418 257.768C32.8154 257.5 32.1934 257.363 31.4922 257.363C30.2158 257.363 28.7871 257.807 27.4062 258.237C26.2432 258.599 25.04 258.973 24.2266 258.973C23.8779 258.973 23.7559 258.904 23.7266 258.883C23.2383 258.527 23.2148 256.422 23.2012 255.164C23.1768 252.976 23.1523 250.715 21.8262 249.389C20.501 248.063 18.2393 248.039 16.0518 248.014C14.7939 248.001 12.6885 247.977 12.333 247.489C11.9834 247.009 12.6064 245.007 12.9785 243.81C13.6299 241.717 14.3037 239.551 13.4473 237.873C12.6006 236.215 10.4658 235.495 8.40234 234.8C7.20312 234.396 5.19727 233.719 5.00781 233.135C4.82812 232.583 6.08203 230.817 6.75488 229.869C8.03027 228.072 9.34863 226.215 9.05371 224.342C8.76758 222.515 6.9707 221.177 5.23242 219.884C4.20996 219.123 2.5 217.849 2.5 217.216C2.5 216.583 4.20996 215.309 5.23145 214.549C6.96973 213.255 8.76758 211.917 9.05371 210.091C9.34863 208.218 8.03027 206.36 6.75488 204.563C6.08203 203.615 4.82812 201.849 5.00781 201.297C5.19727 200.713 7.2041 200.036 8.40234 199.633C10.4668 198.937 12.6006 198.218 13.4482 196.559C14.3047 194.882 13.6309 192.716 12.9785 190.621C12.6064 189.425 11.9834 187.423 12.333 186.942C12.6885 186.454 14.7939 186.43 16.0527 186.417C18.2402 186.392 20.502 186.368 21.8271 185.043C23.1523 183.718 23.1768 181.456 23.2012 179.269C23.2158 178.01 23.2383 175.904 23.7275 175.549C23.7568 175.527 23.8789 175.459 24.2266 175.459C25.04 175.459 26.2422 175.833 27.4053 176.194C28.7871 176.624 30.2158 177.069 31.4932 177.069C32.1943 177.069 32.8164 176.932 33.3428 176.664C35.001 175.816 35.7207 173.682 36.416 171.619C36.8203 170.421 37.4961 168.414 38.0811 168.224H38.0938C38.8857 168.224 40.25 169.192 41.3477 169.971C42.9688 171.122 44.6455 172.311 46.3369 172.311C46.5195 172.311 46.6982 172.298 46.874 172.269C48.7012 171.983 50.0391 170.185 51.333 168.447C52.0938 167.426 53.3662 165.716 54 165.716C54.6338 165.716 55.9062 167.426 56.667 168.447C57.9609 170.185 59.2988 171.983 61.126 172.269C61.3018 172.298 61.4814 172.311 61.6631 172.311C63.3545 172.311 65.0312 171.121 66.6523 169.97C67.7559 169.187 69.1289 168.213 69.8311 168.213C70.5029 168.414 71.1797 170.42 71.584 171.618C72.2793 173.682 72.999 175.816 74.6572 176.664C75.1846 176.932 75.8066 177.069 76.5078 177.069C77.7842 177.069 79.2129 176.625 80.5938 176.195C81.7568 175.833 82.96 175.459 83.7734 175.459C84.1221 175.459 84.2441 175.528 84.2734 175.55C84.7617 175.905 84.7852 178.01 84.7988 179.268C84.8232 181.456 84.8477 183.718 86.1738 185.043C87.499 186.369 89.7607 186.393 91.9482 186.418C93.2061 186.431 95.3115 186.455 95.667 186.943C96.0166 187.424 95.3936 189.426 95.0215 190.622C94.3701 192.716 93.6963 194.882 94.5527 196.559C95.3994 198.218 97.5342 198.937 99.5977 199.633C100.797 200.036 102.803 200.713 102.992 201.297C103.172 201.849 101.918 203.615 101.245 204.563C99.9697 206.36 98.6514 208.218 98.9463 210.091C99.2324 211.917 101.03 213.255 102.769 214.549C103.79 215.309 105.5 216.583 105.5 217.216C105.5 217.849 103.79 219.123 102.768 219.884C101.029 221.177 99.2324 222.515 98.9463 224.342C98.6514 226.215 99.9697 228.072 101.245 229.869C101.919 230.817 103.172 232.583 102.992 233.134C102.803 233.719 100.796 234.396 99.5967 234.8C97.5332 235.496 95.3984 236.215 94.5518 237.873C93.6953 239.551 94.3691 241.717 95.0215 243.811C95.3936 245.008 96.0166 247.01 95.667 247.49C95.3115 247.978 93.2061 248.002 91.9473 248.015C89.7598 248.04 87.498 248.064 86.1729 249.389C84.8477 250.715 84.8232 252.976 84.7988 255.163C84.7842 256.422 84.7617 258.528 84.2725 258.884C84.2129 258.927 84.0498 258.973 83.7734 258.973C82.96 258.974 81.7578 258.599 80.5947 258.238C79.2129 257.808 77.7842 257.363 76.5068 257.363C75.8057 257.363 75.1836 257.5 74.6572 257.768C72.999 258.616 72.2793 260.75 71.584 262.813C71.1797 264.011 70.5039 266.018 69.9189 266.208H69.9062C69.1143 266.208 67.75 265.24 66.6533 264.461C65.0322 263.31 63.3555 262.121 61.6641 262.121C61.4814 262.121 61.3018 262.135 61.125 262.163C59.2998 262.449 57.9609 264.246 56.667 265.984C55.9062 267.006 54.6338 268.716 54 268.716Z" fill="#80F142"/>
<path d="M54 167.509C54.4609 167.996 55.0615 168.803 55.4644 169.344C56.8691 171.231 58.4619 173.37 60.8926 173.752C61.144 173.792 61.4033 173.812 61.6631 173.812C63.8335 173.812 65.708 172.481 67.521 171.194C68.0381 170.827 68.8008 170.286 69.3682 169.964C69.6465 170.567 69.9541 171.48 70.1626 172.098C70.917 174.337 71.7729 176.875 73.9756 178C74.7153 178.377 75.5669 178.569 76.5073 178.569C78.0127 178.569 79.5518 178.09 81.04 177.627C81.7466 177.407 82.5806 177.148 83.2046 177.027C83.2812 177.683 83.292 178.639 83.2993 179.285C83.3252 181.657 83.3555 184.346 85.1133 186.104C86.8706 187.861 89.5591 187.891 91.9312 187.917C92.5781 187.925 93.5352 187.935 94.1909 188.012C94.062 188.656 93.7803 189.563 93.5894 190.176C92.8828 192.447 92.0825 195.02 93.2163 197.241C94.3408 199.444 96.8789 200.299 99.1182 201.054C99.7358 201.262 100.649 201.57 101.252 201.848C100.93 202.415 100.389 203.178 100.022 203.695C98.6406 205.641 97.0752 207.847 97.4644 210.324C97.8462 212.754 99.9854 214.347 101.872 215.752C102.413 216.154 103.22 216.755 103.708 217.216C103.22 217.677 102.413 218.278 101.872 218.68C99.9854 220.085 97.8462 221.678 97.4639 224.109C97.0752 226.585 98.6406 228.791 100.022 230.737C100.389 231.254 100.931 232.017 101.252 232.584C100.649 232.863 99.7358 233.17 99.1182 233.378C96.8789 234.133 94.3408 234.989 93.2163 237.191C92.082 239.413 92.8828 241.986 93.5889 244.256C93.7798 244.87 94.062 245.776 94.1909 246.42C93.5347 246.498 92.5776 246.508 91.9307 246.515C89.5586 246.542 86.8706 246.571 85.1128 248.329C83.355 250.087 83.3252 252.775 83.2988 255.147C83.2915 255.794 83.2808 256.75 83.2041 257.406C82.5801 257.285 81.7461 257.025 81.0396 256.805C79.5513 256.342 78.0122 255.864 76.5073 255.864C75.5669 255.863 74.7153 256.055 73.9751 256.432C71.772 257.557 70.917 260.095 70.1621 262.334C69.9541 262.952 69.6465 263.865 69.3682 264.468C68.8008 264.146 68.0381 263.605 67.521 263.238C65.708 261.951 63.8335 260.621 61.6631 260.621C61.4033 260.621 61.144 260.641 60.8926 260.68C58.4619 261.062 56.8691 263.201 55.4644 265.088C55.0615 265.629 54.4609 266.436 54 266.923C53.5391 266.436 52.9385 265.629 52.5356 265.088C51.1309 263.201 49.5381 261.062 47.1079 260.68C46.8564 260.641 46.5977 260.621 46.3374 260.621C44.167 260.62 42.292 261.951 40.479 263.238C39.9619 263.605 39.1987 264.146 38.6318 264.468C38.3535 263.865 38.0459 262.952 37.8374 262.334C37.083 260.095 36.2271 257.557 34.0244 256.432C33.2852 256.055 32.4331 255.864 31.4927 255.863C29.9873 255.863 28.4478 256.342 26.9595 256.805C26.2529 257.025 25.4194 257.284 24.7954 257.405C24.7188 256.749 24.708 255.793 24.7007 255.147C24.6748 252.775 24.6445 250.086 22.8867 248.328C21.1289 246.571 18.4404 246.541 16.0688 246.515C15.4219 246.508 14.4648 246.497 13.8091 246.42C13.938 245.775 14.2197 244.869 14.4106 244.256C15.1172 241.986 15.9175 239.413 14.7837 237.191C13.6592 234.988 11.1206 234.133 8.88135 233.378C8.26416 233.17 7.35107 232.863 6.74805 232.584C7.06982 232.017 7.61133 231.254 7.97803 230.737C9.35938 228.791 10.9248 226.585 10.5356 224.108C10.1538 221.678 8.01465 220.085 6.12793 218.68C5.58691 218.278 4.77979 217.677 4.29248 217.216C4.77979 216.755 5.58691 216.154 6.12793 215.752C8.01465 214.347 10.1538 212.754 10.5361 210.323C10.9248 207.847 9.35938 205.641 7.97803 203.695C7.61084 203.178 7.06934 202.415 6.74805 201.848C7.35107 201.57 8.26416 201.262 8.88135 201.054C11.1211 200.299 13.6592 199.443 14.7837 197.24C15.918 195.019 15.1172 192.446 14.4111 190.176C14.2202 189.562 13.938 188.656 13.8091 188.012C14.4653 187.935 15.4224 187.924 16.0693 187.917C18.4414 187.891 21.1299 187.861 22.8872 186.103C24.645 184.345 24.6748 181.657 24.7012 179.285C24.7085 178.638 24.7192 177.683 24.7959 177.027C25.4199 177.147 26.2539 177.407 26.96 177.626C28.4487 178.09 29.9878 178.569 31.4932 178.569C32.4336 178.569 33.2852 178.377 34.0244 178C36.2275 176.875 37.083 174.337 37.8379 172.097C38.0459 171.48 38.354 170.567 38.6318 169.964C39.1992 170.286 39.9619 170.827 40.479 171.194C42.292 172.481 44.1665 173.812 46.3369 173.812C46.5967 173.812 46.856 173.792 47.1074 173.752C49.5381 173.37 51.1309 171.231 52.5356 169.344C52.9385 168.803 53.5391 167.996 54 167.509ZM54 164.216C51.3384 164.216 49.1909 170.388 46.6416 170.788C46.542 170.804 46.4404 170.812 46.3369 170.812C43.9209 170.812 40.54 166.713 38.1699 166.713C37.979 166.713 37.7944 166.74 37.6182 166.797C35.1094 167.612 34.978 174.145 32.6606 175.328C32.3267 175.498 31.9316 175.569 31.4932 175.569C29.397 175.569 26.3125 173.958 24.2266 173.958C23.688 173.958 23.2158 174.066 22.8442 174.336C20.7241 175.879 22.6162 182.132 20.7661 183.982C18.916 185.832 12.6636 183.939 11.1206 186.06C9.58447 188.17 13.3076 193.534 12.1118 195.876C10.9287 198.194 4.396 198.325 3.58105 200.834C2.78076 203.3 7.9834 207.241 7.57227 209.858C7.17139 212.407 1 214.554 1 217.216C1 219.878 7.17139 222.025 7.57227 224.574C7.9834 227.191 2.78076 231.133 3.58105 233.598C4.396 236.107 10.9287 236.238 12.1118 238.555C13.3071 240.897 9.58447 246.261 11.1201 248.372C12.6631 250.492 18.9155 248.6 20.7656 250.45C22.6157 252.3 20.7236 258.552 22.8438 260.096C23.2153 260.366 23.687 260.473 24.2261 260.473C26.3125 260.473 29.3965 258.863 31.4922 258.863C31.9307 258.863 32.3262 258.934 32.6602 259.104C34.9775 260.287 35.1094 266.82 37.6182 267.635C37.7949 267.692 37.979 267.719 38.1699 267.719C40.54 267.719 43.9209 263.62 46.3374 263.621C46.4404 263.621 46.5425 263.628 46.6421 263.644C49.1909 264.044 51.3384 270.216 54 270.216C56.6616 270.216 58.8091 264.044 61.3584 263.644C61.458 263.628 61.5596 263.621 61.6631 263.621C64.0791 263.621 67.46 267.719 69.8301 267.719C70.021 267.719 70.2056 267.692 70.3818 267.635C72.8906 266.82 73.022 260.287 75.3394 259.104C75.6733 258.934 76.0684 258.863 76.5068 258.864C78.603 258.864 81.687 260.474 83.7734 260.474C84.312 260.474 84.7842 260.366 85.1558 260.096C87.2759 258.553 85.3838 252.3 87.2339 250.45C89.084 248.6 95.3364 250.493 96.8794 248.372C98.4155 246.262 94.6924 240.897 95.8882 238.556C97.0713 236.238 103.604 236.107 104.419 233.598C105.219 231.133 100.017 227.191 100.428 224.574C100.829 222.025 107 219.878 107 217.216C107 214.554 100.829 212.407 100.428 209.858C100.017 207.241 105.219 203.299 104.419 200.834C103.604 198.325 97.0713 198.194 95.8882 195.877C94.6929 193.535 98.4155 188.17 96.8799 186.06C95.3369 183.94 89.0845 185.832 87.2344 183.982C85.3843 182.132 87.2764 175.88 85.1562 174.336C84.7847 174.066 84.3125 173.959 83.7739 173.959C81.6875 173.959 78.6035 175.569 76.5073 175.569C76.0693 175.569 75.6738 175.498 75.3398 175.328C73.0225 174.145 72.8906 167.612 70.3818 166.797C70.2051 166.74 70.021 166.713 69.8301 166.713C67.46 166.713 64.0791 170.812 61.6631 170.812C61.5601 170.812 61.458 170.804 61.3584 170.788C58.8091 170.388 56.6616 164.216 54 164.216Z" fill="black"/>
<path d="M54 254.716C74.7107 254.716 91.5 237.927 91.5 217.216C91.5 196.505 74.7107 179.716 54 179.716C33.2893 179.716 16.5 196.505 16.5 217.216C16.5 237.927 33.2893 254.716 54 254.716Z" fill="#D2F100" stroke="black" stroke-width="3" stroke-miterlimit="10"/>
<path d="M53.5039 244.216C68.4156 244.216 80.5039 232.127 80.5039 217.216C80.5039 202.304 68.4156 190.216 53.5039 190.216C38.5922 190.216 26.5039 202.304 26.5039 217.216C26.5039 232.127 38.5922 244.216 53.5039 244.216Z" fill="#FFEC00"/>
<path d="M53.5039 191.716C67.5874 191.716 79.0039 203.133 79.0039 217.216C79.0039 231.299 67.5874 242.716 53.5039 242.716C39.4209 242.716 28.0039 231.299 28.0039 217.216C28.0039 203.133 39.4209 191.716 53.5039 191.716ZM53.5039 188.716C37.7891 188.716 25.0039 201.501 25.0039 217.216C25.0039 232.931 37.7891 245.716 53.5039 245.716C69.2188 245.716 82.0039 232.931 82.0039 217.216C82.0039 201.501 69.2188 188.716 53.5039 188.716Z" fill="black"/>
<path d="M578.485 267.216C606.099 267.216 628.485 244.83 628.485 217.216C628.485 189.602 606.099 167.216 578.485 167.216C550.871 167.216 528.485 189.602 528.485 217.216C528.485 244.83 550.871 267.216 578.485 267.216Z" fill="#80F142" stroke="black" stroke-width="3" stroke-miterlimit="10"/>
<path d="M618.593 217.216C618.593 206.143 614.092 196.122 606.822 188.879L578.484 217.216H618.593Z" fill="#D2F100" stroke="black" stroke-width="3" stroke-miterlimit="10"/>
<path d="M606.822 188.879C599.587 181.672 589.611 177.216 578.593 177.216C578.556 177.216 578.521 177.219 578.484 177.219V217.216L606.822 188.879Z" fill="#D2F100" stroke="black" stroke-width="3" stroke-miterlimit="10"/>
<path d="M578.484 217.216L592.112 230.843L606.822 245.553C613.495 238.904 617.825 229.912 618.492 219.916C618.551 219.023 618.593 218.124 618.593 217.216H578.484Z" fill="#D2F100" stroke="black" stroke-width="3" stroke-miterlimit="10"/>
<path d="M550.255 245.445C550.909 246.101 551.592 246.728 552.29 247.338C559.297 253.462 568.453 257.187 578.484 257.213V217.216L550.255 245.445Z" fill="#D2F100" stroke="black" stroke-width="3" stroke-miterlimit="10"/>
<path d="M592.112 230.843L578.484 217.216V257.213C578.521 257.213 578.556 257.216 578.593 257.216C589.611 257.216 599.587 252.76 606.822 245.553L592.112 230.843Z" fill="#D2F100" stroke="black" stroke-width="3" stroke-miterlimit="10"/>
<path d="M578.484 177.219C567.454 177.248 557.475 181.741 550.255 188.987L578.484 217.216V177.219Z" fill="#D2F100" stroke="black" stroke-width="3" stroke-miterlimit="10"/>
<path d="M550.255 188.987C543.049 196.221 538.593 206.198 538.593 217.216H578.484L550.255 188.987Z" fill="#D2F100" stroke="black" stroke-width="3" stroke-miterlimit="10"/>
<path d="M538.593 217.216C538.593 228.234 543.049 238.211 550.255 245.445L578.484 217.216H538.593Z" fill="#D2F100" stroke="black" stroke-width="3" stroke-miterlimit="10"/>
<path d="M60.3125 86.0777C61.2819 83.96 61.4059 81.9427 60.8601 79.7781C60.794 79.5161 60.768 79.2432 60.7338 78.974C60.5114 77.2232 61.0193 75.0313 62.0484 73.3081C63.4108 71.0269 65.3748 69.9817 66.0345 69.6414C68.0727 68.5902 70.2664 68.3894 72.2298 68.5296C71.2271 68.1233 70.8599 67.9058 70.6326 67.781C68.3638 66.5354 66.9876 64.7099 66.647 62.0979C66.3774 60.0293 66.8848 58.2078 68.1316 56.5717C69.1452 55.2419 69.6043 53.7526 69.5142 52.0847C69.4931 51.6941 69.5122 51.3001 69.531 50.9085C69.6973 47.4158 72.5284 43.7539 75.7403 43.3745C78.0531 43.1013 79.8409 42.158 81.4057 40.5662C81.595 40.3733 81.8147 40.2093 82.0268 40.0401C83.4065 38.9395 85.5429 38.2334 87.5498 38.2161C90.2069 38.1934 92.1211 39.3274 92.7548 39.7139C96.9527 42.2744 98.2094 47.4809 98.7232 49.4639C99.1294 51.0316 99.6331 52.75 100.248 54.6435C100.244 54.4479 100.241 54.2427 100.238 54.0188C100.161 48.5611 100.415 47.469 100.505 46.972C100.963 44.4246 102.255 42.5386 104.623 41.3839C106.498 40.4695 108.386 40.3703 110.334 41.0312C111.917 41.5684 113.475 41.5293 115.027 40.9129C115.391 40.7683 115.771 40.661 116.148 40.5541C119.512 39.5994 123.884 41.1167 125.267 44.0406C126.263 46.1459 127.726 47.5401 129.733 48.5164C129.977 48.6346 130.202 48.7904 130.43 48.9375C131.913 49.8951 133.262 51.6952 133.918 53.5922C134.786 56.1037 134.32 58.2793 134.156 59.0032C133.066 63.7979 128.531 66.6474 126.814 67.766C125.643 68.5294 124.384 69.4038 123.034 70.3894C123.396 70.3075 123.757 70.2256 124.119 70.1438C124.488 70.0921 125.05 70.0144 125.735 69.9246C131.147 69.2146 132.261 69.3404 132.765 69.3714C135.348 69.5305 137.371 70.595 138.793 72.8123C139.919 74.5684 140.237 76.4324 139.807 78.4439C139.457 80.079 139.677 81.6219 140.47 83.0921C140.655 83.4363 140.806 83.8009 140.956 84.1631C142.295 87.3933 141.296 91.9129 138.553 93.6258C136.577 94.859 135.362 96.4746 134.626 98.5818C134.537 98.8369 134.408 99.0789 134.288 99.3225C133.509 100.906 131.878 102.456 130.07 103.327C127.677 104.481 125.461 104.272 124.723 104.192C120.626 103.751 117.61 100.752 115.968 98.8649C116.049 99.1137 116.14 99.3924 116.239 99.7C117.913 104.895 117.991 106.014 118.051 106.515C118.36 109.085 117.678 111.267 115.754 113.065C114.23 114.49 112.454 115.138 110.397 115.078C108.726 115.029 107.248 115.523 105.945 116.568C105.64 116.813 105.308 117.027 104.979 117.24C102.043 119.139 97.418 118.972 95.2383 116.582C93.6689 114.862 91.8608 113.958 89.6553 113.614C89.3882 113.572 89.127 113.489 88.8659 113.416C87.1675 112.935 85.349 111.61 84.1658 109.989C82.5994 107.843 82.4059 105.626 82.3509 104.886C82.1984 102.835 82.7256 100.935 83.4827 99.3008C79.8479 102.417 78.9185 102.894 78.5022 103.133C76.2586 104.423 73.9836 104.649 71.5755 103.582C69.6682 102.736 68.3764 101.356 67.6275 99.4398C67.0188 97.8826 65.9855 96.7159 64.5142 95.9253C64.1695 95.7403 63.8429 95.519 63.5182 95.2993C60.6215 93.3409 58.9661 89.0183 60.3125 86.0777Z" fill="white" stroke="black" stroke-width="3" stroke-linecap="round" stroke-linejoin="round"/>
<path d="M83.3298 83.3406C83.6703 82.3757 83.6448 81.4882 83.3205 80.5628C83.2812 80.4508 83.259 80.3324 83.2334 80.216C83.067 79.4588 83.2026 78.4797 83.5847 77.6852C84.0906 76.6333 84.9086 76.0984 85.1838 75.9234C86.034 75.383 86.9858 75.2085 87.8503 75.1922C87.3956 75.0541 87.2264 74.9734 87.122 74.9278C86.0802 74.4725 85.4059 73.7282 85.1537 72.5989C84.954 71.7045 85.104 70.8876 85.5849 70.1225C85.9758 69.5006 86.1178 68.8309 86.0125 68.1048C85.9878 67.9347 85.9806 67.7615 85.9734 67.5895C85.9081 66.0548 87.002 64.3409 88.3923 64.048C89.3934 63.8371 90.1382 63.3537 90.7599 62.5954C90.8352 62.5036 90.9248 62.4231 91.0109 62.3407C91.5711 61.8047 92.4778 61.4114 93.3552 61.3245C94.5168 61.2095 95.3991 61.6301 95.6916 61.7741C97.6294 62.7285 98.3849 64.9567 98.6881 65.804C98.9278 66.4738 99.216 67.2057 99.5597 68.0099C99.5505 67.9244 99.5409 67.8348 99.5306 67.737C99.2815 65.3522 99.3496 64.8643 99.369 64.6433C99.4689 63.5107 99.9596 62.6346 100.95 62.0358C101.734 61.5617 102.556 61.4436 103.435 61.6558C104.149 61.8283 104.829 61.7496 105.483 61.4186C105.637 61.341 105.799 61.2791 105.959 61.2174C107.393 60.6668 109.367 61.1578 110.087 62.3824C110.606 63.2642 111.301 63.8163 112.218 64.1641C112.329 64.2062 112.434 64.2655 112.539 64.3209C113.226 64.6812 113.887 65.4154 114.249 66.2195C114.728 67.284 114.611 68.2542 114.567 68.5775C114.28 70.7182 112.408 72.1441 111.701 72.7013C111.219 73.0816 110.703 73.5139 110.151 73.9985C110.306 73.9484 110.461 73.8982 110.616 73.8482C110.775 73.8109 111.018 73.7548 111.314 73.6884C113.654 73.1639 114.146 73.1749 114.368 73.1686C115.505 73.1361 116.432 73.5219 117.142 74.4358C117.704 75.1596 117.916 75.9626 117.808 76.8596C117.719 77.5888 117.876 78.2551 118.281 78.8671C118.376 79.0103 118.456 79.1639 118.536 79.3164C119.25 80.6768 118.991 82.6936 117.859 83.5514C117.043 84.169 116.576 84.9239 116.336 85.8749C116.308 85.99 116.261 86.1009 116.218 86.2123C115.94 86.9359 115.288 87.6785 114.531 88.1311C113.529 88.7304 112.552 88.7263 112.226 88.7207C110.416 88.6898 108.978 87.4969 108.185 86.736C108.23 86.8416 108.281 86.9599 108.336 87.0906C109.274 89.2973 109.352 89.7837 109.398 90.0006C109.635 91.1127 109.423 92.0943 108.652 92.9572C108.042 93.6406 107.29 93.9946 106.388 94.0495C105.655 94.0941 105.028 94.3688 104.499 94.8774C104.375 94.9965 104.239 95.1032 104.103 95.2094C102.894 96.1564 100.864 96.2659 99.8155 95.3066C99.0609 94.6158 98.2341 94.292 97.2556 94.2284C97.1371 94.2208 97.0195 94.1948 96.9024 94.1729C96.1403 94.0298 95.2924 93.5219 94.7106 92.8595C93.9405 91.9823 93.7683 91.0202 93.715 90.6986C93.5672 89.807 93.7228 88.9553 93.9895 88.2103C92.5223 89.717 92.1346 89.9627 91.9619 90.0838C91.0313 90.7369 90.0448 90.9257 88.9491 90.5537C88.0813 90.2592 87.4615 89.7062 87.0582 88.8976C86.7303 88.2403 86.2321 87.7707 85.5572 87.483C85.3991 87.4156 85.2475 87.3317 85.0967 87.2484C83.752 86.506 82.8569 84.6803 83.3298 83.3406Z" fill="#FFC5DD" stroke="black" stroke-width="3" stroke-linecap="round" stroke-linejoin="round"/>
<path d="M100.949 75.3789C103.445 73.1932 106.195 71.3105 109.12 69.7834C112.833 67.8449 116.8 66.4943 120.941 65.7346C121.103 65.3022 121.314 64.8814 121.591 64.4854C123.362 61.9493 126.853 61.3289 129.389 63.0996C131.925 64.8703 132.545 68.3617 130.775 70.8978C129.004 73.4339 125.513 74.0543 122.977 72.2836C122.549 71.9851 122.181 71.6347 121.865 71.2513C118.306 71.9137 114.897 73.0779 111.709 74.743C109.177 76.0646 106.796 77.695 104.633 79.5884C103.645 80.4534 102.221 80.4985 101.191 79.7791C101.008 79.6518 100.839 79.5009 100.686 79.3257C99.6683 78.164 99.7858 76.3966 100.949 75.3789Z" fill="#FFEC00" stroke="black" stroke-width="3" stroke-linecap="round" stroke-linejoin="round"/>
<path d="M571.046 86.0777C570.076 83.96 569.952 81.9427 570.498 79.7781C570.564 79.5161 570.59 79.2432 570.624 78.974C570.847 77.2232 570.339 75.0313 569.31 73.3081C567.947 71.0269 565.983 69.9817 565.324 69.6414C563.285 68.5902 561.092 68.3894 559.128 68.5296C560.131 68.1233 560.498 67.9058 560.725 67.781C562.994 66.5354 564.371 64.7099 564.711 62.0979C564.981 60.0293 564.473 58.2078 563.226 56.5717C562.213 55.2419 561.754 53.7526 561.844 52.0847C561.865 51.6941 561.846 51.3001 561.827 50.9085C561.661 47.4158 558.83 43.7539 555.618 43.3745C553.305 43.1013 551.517 42.158 549.952 40.5662C549.763 40.3733 549.543 40.2093 549.331 40.0401C547.952 38.9395 545.815 38.2334 543.808 38.2161C541.151 38.1934 539.237 39.3274 538.603 39.7139C534.405 42.2744 533.149 47.4809 532.635 49.4639C532.229 51.0316 531.725 52.75 531.11 54.6435C531.114 54.4479 531.117 54.2427 531.121 54.0188C531.197 48.5611 530.943 47.469 530.853 46.972C530.395 44.4246 529.103 42.5386 526.735 41.3839C524.86 40.4695 522.972 40.3703 521.024 41.0312C519.441 41.5684 517.883 41.5293 516.331 40.9129C515.967 40.7683 515.588 40.661 515.21 40.5541C511.847 39.5994 507.474 41.1167 506.091 44.0406C505.095 46.1459 503.632 47.5401 501.625 48.5164C501.381 48.6346 501.156 48.7904 500.928 48.9375C499.445 49.8951 498.096 51.6952 497.44 53.5922C496.572 56.1037 497.038 58.2793 497.202 59.0032C498.292 63.7979 502.827 66.6474 504.544 67.766C505.715 68.5294 506.974 69.4038 508.324 70.3894C507.962 70.3075 507.601 70.2256 507.239 70.1438C506.871 70.0921 506.308 70.0144 505.623 69.9246C500.212 69.2146 499.097 69.3404 498.593 69.3714C496.01 69.5305 493.987 70.595 492.565 72.8123C491.439 74.5684 491.121 76.4324 491.551 78.4439C491.901 80.079 491.681 81.6219 490.888 83.0921C490.703 83.4363 490.552 83.8009 490.402 84.1631C489.063 87.3933 490.062 91.9129 492.806 93.6258C494.781 94.859 495.996 96.4746 496.733 98.5818C496.822 98.8369 496.95 99.0789 497.07 99.3225C497.849 100.906 499.48 102.456 501.288 103.327C503.682 104.481 505.897 104.272 506.635 104.192C510.733 103.751 513.748 100.752 515.391 98.8649C515.309 99.1137 515.218 99.3924 515.119 99.7C513.445 104.895 513.367 106.014 513.307 106.515C512.998 109.085 513.68 111.267 515.604 113.065C517.128 114.49 518.905 115.138 520.961 115.078C522.632 115.029 524.11 115.523 525.413 116.568C525.718 116.813 526.05 117.027 526.379 117.24C529.315 119.139 533.94 118.972 536.12 116.582C537.689 114.862 539.497 113.958 541.703 113.614C541.97 113.572 542.231 113.489 542.492 113.416C544.191 112.935 546.009 111.61 547.192 109.989C548.759 107.843 548.952 105.626 549.007 104.886C549.16 102.835 548.632 100.935 547.875 99.3008C551.51 102.417 552.44 102.894 552.856 103.133C555.1 104.423 557.375 104.649 559.783 103.582C561.69 102.736 562.982 101.356 563.731 99.4398C564.339 97.8826 565.373 96.7159 566.844 95.9253C567.189 95.7403 567.515 95.519 567.84 95.2993C570.737 93.3409 572.392 89.0183 571.046 86.0777Z" fill="#FFEC00" stroke="black" stroke-width="3" stroke-linecap="round" stroke-linejoin="round"/>
<path d="M548.028 83.3406C547.688 82.3757 547.713 81.4882 548.038 80.5628C548.077 80.4508 548.099 80.3324 548.125 80.216C548.291 79.4588 548.156 78.4797 547.773 77.6852C547.267 76.6333 546.45 76.0984 546.174 75.9234C545.324 75.383 544.372 75.2085 543.508 75.1922C543.962 75.0541 544.132 74.9734 544.236 74.9278C545.278 74.4725 545.952 73.7282 546.204 72.5989C546.404 71.7045 546.254 70.8876 545.773 70.1225C545.382 69.5006 545.24 68.8309 545.346 68.1048C545.37 67.9347 545.377 67.7615 545.385 67.5895C545.45 66.0548 544.356 64.3409 542.966 64.048C541.965 63.8371 541.22 63.3537 540.598 62.5954C540.523 62.5036 540.433 62.4231 540.347 62.3407C539.787 61.8047 538.88 61.4114 538.003 61.3245C536.841 61.2095 535.959 61.6301 535.666 61.7741C533.729 62.7285 532.973 64.9567 532.67 65.804C532.43 66.4738 532.142 67.2057 531.798 68.0099C531.808 67.9244 531.817 67.8348 531.827 67.737C532.077 65.3522 532.009 64.8643 531.989 64.6433C531.889 63.5107 531.398 62.6346 530.408 62.0358C529.624 61.5617 528.802 61.4436 527.924 61.6558C527.21 61.8283 526.529 61.7496 525.875 61.4186C525.721 61.341 525.559 61.2791 525.399 61.2174C523.965 60.6668 521.992 61.1578 521.271 62.3824C520.752 63.2642 520.057 63.8163 519.14 64.1641C519.029 64.2062 518.924 64.2655 518.819 64.3209C518.132 64.6812 517.471 65.4154 517.109 66.2195C516.63 67.284 516.748 68.2542 516.791 68.5775C517.078 70.7182 518.95 72.1441 519.657 72.7013C520.139 73.0816 520.655 73.5139 521.207 73.9985C521.052 73.9484 520.897 73.8982 520.742 73.8482C520.583 73.8109 520.34 73.7548 520.044 73.6884C517.704 73.1639 517.212 73.1749 516.99 73.1686C515.853 73.1361 514.926 73.5219 514.216 74.4358C513.654 75.1596 513.442 75.9626 513.55 76.8596C513.639 77.5888 513.482 78.2551 513.077 78.8671C512.982 79.0103 512.902 79.1639 512.822 79.3164C512.108 80.6768 512.367 82.6936 513.499 83.5514C514.315 84.169 514.783 84.9239 515.022 85.8749C515.05 85.99 515.097 86.1009 515.14 86.2123C515.418 86.9359 516.07 87.6785 516.827 88.1311C517.829 88.7304 518.806 88.7263 519.132 88.7207C520.942 88.6898 522.38 87.4969 523.173 86.736C523.128 86.8416 523.077 86.9599 523.022 87.0906C522.084 89.2973 522.006 89.7837 521.96 90.0006C521.723 91.1127 521.935 92.0943 522.706 92.9572C523.316 93.6406 524.068 93.9946 524.97 94.0495C525.703 94.0941 526.33 94.3688 526.859 94.8774C526.983 94.9965 527.119 95.1032 527.255 95.2094C528.464 96.1564 530.495 96.2659 531.543 95.3066C532.297 94.6158 533.124 94.292 534.103 94.2284C534.221 94.2208 534.339 94.1948 534.456 94.1729C535.218 94.0298 536.066 93.5219 536.647 92.8595C537.418 91.9823 537.59 91.0202 537.643 90.6986C537.791 89.807 537.635 88.9553 537.369 88.2103C538.836 89.717 539.224 89.9627 539.396 90.0838C540.327 90.7369 541.313 90.9257 542.409 90.5537C543.277 90.2592 543.897 89.7062 544.3 88.8976C544.628 88.2403 545.126 87.7707 545.801 87.483C545.959 87.4156 546.111 87.3317 546.261 87.2484C547.606 86.506 548.501 84.6803 548.028 83.3406Z" fill="#FF5450" stroke="black" stroke-width="3" stroke-linecap="round" stroke-linejoin="round"/>
<path d="M530.41 75.3789C527.913 73.1932 525.163 71.3105 522.238 69.7834C518.525 67.8449 514.558 66.4943 510.417 65.7346C510.255 65.3022 510.044 64.8814 509.767 64.4854C507.997 61.9493 504.505 61.3289 501.969 63.0996C499.433 64.8703 498.813 68.3617 500.583 70.8978C502.354 73.4339 505.845 74.0543 508.382 72.2836C508.809 71.9851 509.177 71.6347 509.493 71.2513C513.053 71.9137 516.461 73.0779 519.649 74.743C522.181 76.0646 524.562 77.695 526.725 79.5884C527.713 80.4534 529.137 80.4985 530.167 79.7791C530.35 79.6518 530.519 79.5009 530.672 79.3257C531.69 78.164 531.572 76.3966 530.41 75.3789Z" fill="#FFC5DD" stroke="black" stroke-width="3" stroke-linecap="round" stroke-linejoin="round"/>
<path d="M121.288 344.11C120.805 339.105 115.754 334.591 108.887 334.08C108.952 333.294 109.41 326.298 103.963 321.497C99.6692 317.712 93.4036 316.789 87.9157 319.126C87.5818 318.071 85.9011 313.148 80.8037 310.556C77.7713 309.013 74.9181 309.002 73.5093 309.096C72.1005 309.002 69.2473 309.013 66.2149 310.556C61.1175 313.148 59.4368 318.071 59.1028 319.126C53.615 316.789 47.3495 317.712 43.0552 321.497C37.6088 326.298 38.0666 333.294 38.1314 334.08C31.2648 334.591 26.2132 339.105 25.7309 344.11C25.4835 346.677 26.4008 349.762 28.6487 351.769C32.4619 355.173 38.4485 353.911 42.8728 353.045C59.076 349.875 67.1777 348.29 73.6916 348.304C79.9156 348.317 87.9923 349.893 104.146 353.045C108.598 353.914 114.564 355.166 118.37 351.769C120.618 349.762 121.535 346.677 121.288 344.11Z" fill="#80F142" stroke="black" stroke-width="3" stroke-miterlimit="10"/>
<path d="M605.653 344.11C605.17 339.105 600.119 334.591 593.252 334.08C593.317 333.294 593.775 326.298 588.328 321.497C584.034 317.712 577.768 316.789 572.281 319.126C571.947 318.071 570.266 313.148 565.169 310.556C562.136 309.013 559.283 309.002 557.874 309.096C556.465 309.002 553.612 309.013 550.58 310.556C545.482 313.148 543.802 318.071 543.468 319.126C537.98 316.789 531.714 317.712 527.42 321.497C521.974 326.298 522.431 333.294 522.496 334.08C515.63 334.591 510.578 339.105 510.096 344.11C509.848 346.677 510.766 349.762 513.013 351.769C516.827 355.173 522.813 353.911 527.238 353.045C543.441 349.875 551.542 348.29 558.056 348.304C564.28 348.317 572.357 349.893 588.511 353.045C592.963 353.914 598.929 355.166 602.735 351.769C604.983 349.762 605.9 346.677 605.653 344.11Z" fill="#80F142" stroke="black" stroke-width="3" stroke-miterlimit="10"/>
<path d="M566.006 295.2C569.169 290.675 568.326 284.415 563.954 280.917C559.581 277.419 553.289 277.97 549.568 282.049C546.242 277.643 540.028 276.51 535.35 279.587C530.671 282.665 529.251 288.82 531.981 293.619C526.762 295.42 523.764 300.98 525.245 306.381C526.726 311.781 532.141 315.034 537.549 313.921C537.65 319.44 542.011 324.009 547.605 324.269C553.198 324.529 557.966 320.385 558.578 314.898C563.859 316.509 569.553 313.772 571.529 308.533C573.505 303.293 571.036 297.478 566.006 295.2Z" fill="#FFC5DD" stroke="black" stroke-width="3" stroke-linecap="round" stroke-linejoin="round"/>
<path d="M101.414 295.2C104.577 290.675 103.734 284.415 99.3621 280.917C94.9896 277.419 88.6967 277.97 84.9762 282.049C81.6504 277.643 75.4361 276.51 70.7579 279.587C66.0794 282.665 64.6591 288.82 67.3892 293.619C62.17 295.42 59.1721 300.98 60.6532 306.381C62.1344 311.781 67.5494 315.034 72.9572 313.921C73.058 319.44 77.4196 324.009 83.0129 324.269C88.6066 324.529 93.3736 320.385 93.9859 314.898C99.267 316.509 104.961 313.772 106.937 308.533C108.913 303.293 106.444 297.478 101.414 295.2Z" fill="#FFC5DD" stroke="black" stroke-width="3" stroke-linecap="round" stroke-linejoin="round"/>
</g>
<defs>
<clipPath id="clip0_215_4310">
<rect width="628.985" height="606.452" fill="white" transform="translate(0.5)"/>
</clipPath>
</defs>
</svg>
